<svg width="34" height="34" viewBox="0 0 34 34" fill="none" xmlns="http://www.w3.org/2000/svg">
<path d="M31.1174 23.0047L30.1346 22.8198L30.1346 22.8198L31.1174 23.0047ZM30.7421 24.9994L29.7593 24.8145L29.7593 24.8145L30.7421 24.9994ZM2.88262 23.0047L3.86539 22.8198L3.86538 22.8198L2.88262 23.0047ZM3.25787 24.9994L2.27511 25.1843L2.27511 25.1843L3.25787 24.9994ZM26.6207 21.5288L27.6169 21.4412C27.6162 21.4336 27.6155 21.4261 27.6146 21.4185L26.6207 21.5288ZM25.8819 29.7289L25.1488 29.0489L25.1487 29.0489L25.8819 29.7289ZM8.11804 29.7289L8.85125 29.0489L8.85121 29.0489L8.11804 29.7289ZM7.37932 21.5288L6.38543 21.4185C6.38459 21.4261 6.38384 21.4336 6.38317 21.4412L7.37932 21.5288ZM7.45408 12.5655L8.43882 12.3915L8.43882 12.3914L7.45408 12.5655ZM7.27542 8.78948L8.18398 9.20724L8.18399 9.20722L7.27542 8.78948ZM8.39956 7.53794L7.87864 6.68434L7.87863 6.68434L8.39956 7.53794ZM25.6004 7.53794L25.0795 8.39155L25.0795 8.39156L25.6004 7.53794ZM26.7246 8.78948L27.6331 8.37166V8.37166L26.7246 8.78948ZM26.5459 12.5655L25.5612 12.3914L25.5612 12.3915L26.5459 12.5655ZM26.4735 12.9753L27.4583 13.1493L27.4583 13.1492L26.4735 12.9753ZM26.1318 14.4995L27.0668 14.8541L27.0669 14.8539L26.1318 14.4995ZM25.0134 16.1306L24.3413 15.3901L24.3413 15.3902L25.0134 16.1306ZM23.68 17.05L24.2123 17.8966L24.2123 17.8966L23.68 17.05ZM22.3536 17.8281L21.9305 16.922L21.9304 16.9221L22.3536 17.8281ZM20.4553 18.3702L20.5758 19.3629L20.576 19.3629L20.4553 18.3702ZM13.5448 18.3702L13.424 19.3629L13.4242 19.3629L13.5448 18.3702ZM11.6465 17.8281L12.0697 16.9221L12.0696 16.922L11.6465 17.8281ZM10.3201 17.05L9.78778 17.8966L9.7878 17.8966L10.3201 17.05ZM8.98657 16.1306L8.31447 16.8711L8.31448 16.8711L8.98657 16.1306ZM7.86823 14.4995L6.93316 14.854L6.93319 14.854L7.86823 14.4995ZM7.5265 12.9753L6.54176 13.1493L6.54176 13.1493L7.5265 12.9753ZM16.7444 13.2033C16.2105 13.3445 15.8921 13.8918 16.0332 14.4257C16.1744 14.9596 16.7217 15.2781 17.2556 15.1369L16.7444 13.2033ZM17.2679 15.1336C17.8019 14.9925 18.1203 14.4452 17.9791 13.9113C17.838 13.3773 17.2907 13.0589 16.7567 13.2001L17.2679 15.1336ZM26.9167 20.8334H28.6718V18.8334H26.9167V20.8334ZM28.6718 20.8334C29.5461 20.8334 30.3414 21.7209 30.1346 22.8198L32.1001 23.1896C32.5107 21.0073 30.945 18.8334 28.6718 18.8334V20.8334ZM30.1346 22.8198L29.7593 24.8145L31.7249 25.1843L32.1001 23.1896L30.1346 22.8198ZM29.7593 24.8145C29.4757 26.3226 28.2536 27.3334 26.9167 27.3334V29.3334C29.299 29.3334 31.2792 27.5533 31.7249 25.1843L29.7593 24.8145ZM7.08334 18.8334H5.32827V20.8334H7.08334V18.8334ZM5.32827 18.8334C3.05495 18.8334 1.4893 21.0073 1.89987 23.1896L3.86538 22.8198C3.65862 21.7208 4.45382 20.8334 5.32827 20.8334V18.8334ZM1.89986 23.1896L2.27511 25.1843L4.24063 24.8145L3.86539 22.8198L1.89986 23.1896ZM2.27511 25.1843C2.72081 27.5533 4.701 29.3334 7.08334 29.3334V27.3334C5.74639 27.3334 4.52435 26.3226 4.24063 24.8145L2.27511 25.1843ZM24.888 14.9855L25.6268 21.6392L27.6146 21.4185L26.8758 14.7648L24.888 14.9855ZM25.6246 21.6165C25.8255 23.9004 25.9646 25.5083 25.9015 26.7287C25.8399 27.919 25.5911 28.572 25.1488 29.0489L26.6151 30.409C27.5064 29.4481 27.8252 28.2552 27.8988 26.8319C27.9708 25.4388 27.8125 23.6656 27.6169 21.4412L25.6246 21.6165ZM25.1487 29.0489C24.7046 29.5278 24.0628 29.8318 22.8625 29.9964C21.6351 30.1646 19.9996 30.1668 17.6814 30.1668V32.1668C19.9412 32.1668 21.7392 32.1691 23.1342 31.9778C24.5563 31.7829 25.7257 31.368 26.6152 30.4089L25.1487 29.0489ZM17.6814 30.1668H16.3186V32.1668H17.6814V30.1668ZM16.3186 30.1668C14.0004 30.1668 12.3649 30.1646 11.1375 29.9964C9.93727 29.8318 9.29538 29.5278 8.85125 29.0489L7.38484 30.4089C8.2743 31.368 9.4437 31.7829 10.8659 31.9778C12.2608 32.1691 14.0588 32.1668 16.3186 32.1668V30.1668ZM8.85121 29.0489C8.40888 28.572 8.16006 27.919 8.09853 26.7287C8.03544 25.5083 8.17457 23.9004 8.37548 21.6165L6.38317 21.4412C6.1875 23.6656 6.02918 25.4388 6.1012 26.8319C6.17477 28.2552 6.4936 29.4481 7.38488 30.409L8.85121 29.0489ZM8.37322 21.6392L9.11194 14.9854L7.12415 14.7647L6.38543 21.4185L8.37322 21.6392ZM22.25 7.08337C22.25 4.1839 19.8996 1.83337 17 1.83337V3.83337C18.795 3.83337 20.25 5.28844 20.25 7.08337H22.25ZM17 1.83337C14.1004 1.83337 11.75 4.1839 11.75 7.08337H13.75C13.75 5.28844 15.205 3.83337 17 3.83337V1.83337ZM8.43882 12.3914C8.25797 11.3681 8.13658 10.6743 8.09672 10.139C8.05783 9.61683 8.10918 9.36991 8.18398 9.20724L6.36687 8.37172C6.08869 8.97671 6.05216 9.61501 6.10224 10.2875C6.15135 10.9469 6.29577 11.7573 6.46934 12.7395L8.43882 12.3914ZM8.18399 9.20722C8.3338 8.88139 8.5869 8.59513 8.9205 8.39154L7.87863 6.68434C7.21753 7.0878 6.6884 7.67239 6.36686 8.37174L8.18399 9.20722ZM8.92049 8.39154C9.10267 8.28036 9.38124 8.18724 9.94929 8.13618C10.5261 8.08432 11.2817 8.08337 12.3782 8.08337V6.08337C11.3189 6.08337 10.4575 6.08242 9.77022 6.14421C9.07415 6.20679 8.44133 6.34095 7.87864 6.68434L8.92049 8.39154ZM12.3782 8.08337H21.6219V6.08337H12.3782V8.08337ZM21.6219 8.08337C22.7183 8.08337 23.4739 8.08432 24.0507 8.13618C24.6188 8.18724 24.8973 8.28036 25.0795 8.39155L26.1214 6.68433C25.5587 6.34095 24.9258 6.20679 24.2298 6.14421C23.5425 6.08242 22.6812 6.08337 21.6219 6.08337V8.08337ZM25.0795 8.39156C25.4131 8.59508 25.6661 8.88132 25.816 9.2073L27.6331 8.37166C27.3116 7.67246 26.7826 7.08784 26.1213 6.68432L25.0795 8.39156ZM25.816 9.2073C25.8908 9.36995 25.9422 9.61685 25.9033 10.139C25.8635 10.6743 25.7421 11.3681 25.5612 12.3914L27.5307 12.7395C27.7043 11.7573 27.8487 10.947 27.8978 10.2875C27.9479 9.61499 27.9113 8.97667 27.6331 8.37166L25.816 9.2073ZM25.5612 12.3915L25.4888 12.8014L27.4583 13.1492L27.5307 12.7394L25.5612 12.3915ZM25.4888 12.8013C25.3449 13.6159 25.2913 13.8957 25.1968 14.145L27.0669 14.8539C27.2435 14.388 27.3274 13.8901 27.4583 13.1493L25.4888 12.8013ZM25.1968 14.1449C25.0199 14.6114 24.7288 15.0385 24.3413 15.3901L25.6854 16.8711C26.3007 16.3127 26.7752 15.6232 27.0668 14.8541L25.1968 14.1449ZM24.3413 15.3902C24.1316 15.5805 23.8736 15.747 23.1477 16.2035L24.2123 17.8966C24.8773 17.4784 25.3148 17.2075 25.6855 16.8711L24.3413 15.3902ZM23.1478 16.2035C22.4736 16.6273 22.2067 16.793 21.9305 16.922L22.7767 18.7342C23.1916 18.5404 23.5785 18.295 24.2123 17.8966L23.1478 16.2035ZM21.9304 16.9221C21.4305 17.1556 20.8911 17.3098 20.3345 17.3776L20.576 19.3629C21.3398 19.27 22.0836 19.0579 22.7768 18.7341L21.9304 16.9221ZM20.3347 17.3775C20.0261 17.415 19.7033 17.4167 18.8939 17.4167V19.4167C19.6563 19.4167 20.1194 19.4184 20.5758 19.3629L20.3347 17.3775ZM18.8939 17.4167H15.1061V19.4167H18.8939V17.4167ZM15.1061 17.4167C14.2967 17.4167 13.974 17.415 13.6654 17.3775L13.4242 19.3629C13.8806 19.4184 14.3438 19.4167 15.1061 19.4167V17.4167ZM13.6656 17.3776C13.1089 17.3098 12.5696 17.1556 12.0697 16.9221L11.2233 18.7341C11.9165 19.0579 12.6602 19.27 13.424 19.3629L13.6656 17.3776ZM12.0696 16.922C11.7933 16.793 11.5265 16.6273 10.8523 16.2035L9.7878 17.8966C10.4215 18.295 10.8085 18.5404 11.2234 18.7342L12.0696 16.922ZM10.8523 16.2035C10.1264 15.747 9.86829 15.5804 9.65867 15.3902L8.31448 16.8711C8.68515 17.2075 9.12262 17.4784 9.78778 17.8966L10.8523 16.2035ZM9.65867 15.3902C9.27126 15.0385 8.98016 14.6114 8.80327 14.1449L6.93319 14.854C7.22482 15.6231 7.69926 16.3127 8.31447 16.8711L9.65867 15.3902ZM8.80329 14.145C8.70876 13.8956 8.6552 13.6159 8.51124 12.8013L6.54176 13.1493C6.67266 13.8901 6.75651 14.388 6.93316 14.854L8.80329 14.145ZM8.51124 12.8013L8.43882 12.3915L6.46934 12.7395L6.54176 13.1493L8.51124 12.8013ZM17.2556 15.1369L17.2679 15.1336L16.7567 13.2001L16.7444 13.2033L17.2556 15.1369Z" fill="#22577A"/>
</svg>
