<svg width="34" height="34" viewBox="0 0 34 34" fill="none" xmlns="http://www.w3.org/2000/svg">
<path d="M28.3333 32.1668C28.8856 32.1668 29.3333 31.7191 29.3333 31.1668C29.3333 30.6146 28.8856 30.1668 28.3333 30.1668V32.1668ZM6.73855 7.30801L7.54939 7.89328L7.5494 7.89327L6.73855 7.30801ZM8.01685 6.0297L7.43159 5.21885L7.43157 5.21887L8.01685 6.0297ZM20.3091 5.04961L20.2955 6.04952L20.2955 6.04952L20.3091 5.04961ZM23.4065 4.86578L23.5805 5.85052L23.5805 5.85052L23.4065 4.86578ZM24.9733 4.51147L25.3287 5.44619L25.3287 5.44618L24.9733 4.51147ZM28.3333 2.83337H29.3333C29.3333 2.48679 29.1539 2.16493 28.8591 1.98272C28.5642 1.80051 28.1961 1.78395 27.8861 1.93895L28.3333 2.83337ZM27.902 21.2938L28.8258 21.6765L28.8258 21.6765L27.902 21.2938ZM24.8352 24.3606L25.2177 25.2845L25.2179 25.2845L24.8352 24.3606ZM12.3333 5.66671C12.3333 5.11442 11.8856 4.66671 11.3333 4.66671C10.781 4.66671 10.3333 5.11442 10.3333 5.66671H12.3333ZM10.3333 11.3334C10.3333 11.8857 10.781 12.3334 11.3333 12.3334C11.8856 12.3334 12.3333 11.8857 12.3333 11.3334H10.3333ZM28.3333 30.1668H9.20833V32.1668H28.3333V30.1668ZM9.20833 30.1668C7.80462 30.1668 6.66667 29.0289 6.66667 27.6252H4.66667C4.66667 30.1335 6.70004 32.1668 9.20833 32.1668V30.1668ZM6.66667 27.6252V15.1353H4.66667V27.6252H6.66667ZM6.66667 15.1353C6.66667 12.9991 6.66803 11.4768 6.79489 10.3002C6.91975 9.14211 7.15662 8.43744 7.54939 7.89328L5.9277 6.72275C5.2486 7.66361 4.94952 8.75851 4.80642 10.0858C4.66531 11.3945 4.66667 13.0434 4.66667 15.1353H6.66667ZM7.5494 7.89327C7.84169 7.4883 8.19713 7.13287 8.60213 6.84053L7.43157 5.21887C6.85306 5.63645 6.34529 6.1442 5.9277 6.72276L7.5494 7.89327ZM8.60211 6.84055C9.14628 6.44777 9.85095 6.21091 11.009 6.08604C12.1856 5.95918 13.7079 5.95782 15.8441 5.95782V3.95782C13.7522 3.95782 12.1034 3.95646 10.7946 4.09757C9.46735 4.24067 8.37245 4.53975 7.43159 5.21885L8.60211 6.84055ZM15.8441 5.95782C17.2357 5.95782 18.8368 6.02978 20.2955 6.04952L20.3226 4.0497C18.9871 4.03163 17.2191 3.95782 15.8441 3.95782V5.95782ZM20.2955 6.04952C21.5789 6.06687 22.2954 6.07761 23.5805 5.85052L23.2324 3.88104C22.1443 4.07331 21.587 4.0668 20.3226 4.0497L20.2955 6.04952ZM23.5805 5.85052C24.7727 5.63982 24.98 5.57875 25.3287 5.44619L24.6179 3.57676C24.4594 3.63703 24.4131 3.67238 23.2324 3.88104L23.5805 5.85052ZM25.3287 5.44618C26.4756 5.01009 27.6645 4.28583 28.7806 3.7278L27.8861 1.93895C26.5292 2.61742 25.6526 3.18331 24.6179 3.57676L25.3287 5.44618ZM27.3333 2.83337V16.2918H29.3333V2.83337H27.3333ZM27.3333 16.2918C27.3333 17.6257 27.3328 18.576 27.2817 19.3244C27.2313 20.0637 27.1349 20.5326 26.9781 20.9111L28.8258 21.6765C29.1004 21.0137 29.2197 20.3017 29.2771 19.4605C29.3339 18.6283 29.3333 17.5984 29.3333 16.2918H27.3333ZM26.9781 20.9111C26.5044 22.0546 25.5959 22.9631 24.4525 23.4367L25.2179 25.2845C26.8514 24.6078 28.1492 23.31 28.8258 21.6765L26.9781 20.9111ZM24.4526 23.4367C24.074 23.5935 23.6051 23.6898 22.8658 23.7403C22.1175 23.7913 21.1672 23.7918 19.8333 23.7918V25.7918C21.1398 25.7918 22.1698 25.7924 23.0019 25.7356C23.8431 25.6782 24.5549 25.559 25.2177 25.2845L24.4526 23.4367ZM19.8333 23.7918H8.5V25.7918H19.8333V23.7918ZM8.5 23.7918C6.38289 23.7918 4.66667 25.5082 4.66667 27.6252H6.66667C6.66667 26.6127 7.4875 25.7918 8.5 25.7918V23.7918ZM24.5 24.0834V31.1667H26.5V24.0834H24.5ZM10.3333 5.66671V11.3334H12.3333V5.66671H10.3333Z" fill="#22577A"/>
</svg>
