<svg width="34" height="34" viewBox="0 0 34 34" fill="none" xmlns="http://www.w3.org/2000/svg">
<path d="M15.5833 21.25H18.4167M20.5417 31.1667L20.0947 30.5733C19.0872 29.2357 18.8373 27.1921 19.4746 25.5M13.4583 31.1667L13.9053 30.5733C14.9128 29.2357 15.1627 27.1921 14.5254 25.5M9.91668 31.1667H24.0833M19.8333 2.83337H14.1667C9.5211 2.83337 7.19832 2.83337 5.5518 3.98629C4.94263 4.41282 4.41279 4.94266 3.98626 5.55183C2.83334 7.19835 2.83334 9.52113 2.83334 14.1667C2.83334 18.8122 2.83334 21.135 3.98626 22.7816C4.41279 23.3908 4.94263 23.9206 5.5518 24.3472C7.19832 25.5 9.5211 25.5 14.1667 25.5H19.8333C24.4789 25.5 26.8016 25.5 28.4482 24.3472C29.0574 23.9206 29.5872 23.3908 30.0138 22.7816C31.1667 21.135 31.1667 18.8122 31.1667 14.1667C31.1667 9.52113 31.1667 7.19835 30.0138 5.55183C29.5872 4.94266 29.0574 4.41282 28.4482 3.98629C26.8016 2.83337 24.4789 2.83337 19.8333 2.83337Z" stroke="#22577A" stroke-width="2" stroke-linecap="round"/>
</svg>
