<svg width="34" height="34" viewBox="0 0 34 34" fill="none" xmlns="http://www.w3.org/2000/svg">
<path d="M22.6667 24.0834C26.0057 24.0834 27.6753 24.0834 28.7127 23.0461C29.75 22.0087 29.75 20.3391 29.75 17V11.3334H4.25V17C4.25 20.3391 4.25 22.0087 5.28732 23.0461C6.32466 24.0834 7.99422 24.0834 11.3333 24.0834M22.6667 24.0834H11.3333M22.6667 24.0834V28.3334M11.3333 24.0834V28.3334M7.08333 24.0834V31.1667M26.9167 24.0834V31.1667M2.83333 11.3334H5.40909M28.5909 11.3334H31.1667M9.91667 8.50004C9.91667 5.82875 9.91667 4.4931 10.7465 3.66324C11.5764 2.83337 12.912 2.83337 15.5833 2.83337H18.4167C21.0879 2.83337 22.4236 2.83337 23.2534 3.66324C24.0833 4.4931 24.0833 5.82875 24.0833 8.50004V11.3334H9.91667V8.50004Z" stroke="#22577A" stroke-width="1.5" stroke-linecap="round"/>
</svg>
