<svg width="32" height="32" viewBox="0 0 32 32" fill="none" xmlns="http://www.w3.org/2000/svg">
<path d="M2.66663 16C2.66663 10.9717 2.66663 8.45757 4.22872 6.89547C5.79083 5.33337 8.30497 5.33337 13.3333 5.33337H17.3333C19.9504 5.33337 21.259 5.33337 22.3852 5.89643C23.5112 6.45948 24.2964 7.50633 25.8666 9.60004C28.1777 12.6815 29.3333 14.2223 29.3333 16C29.3333 17.7778 28.1777 19.3186 25.8666 22.4C24.2964 24.4938 23.5112 25.5406 22.3852 26.1036C21.259 26.6667 19.9504 26.6667 17.3333 26.6667H13.3333C8.30497 26.6667 5.79083 26.6667 4.22872 25.1046C2.66663 23.5426 2.66663 21.0283 2.66663 16Z" stroke="#0E1116" stroke-width="2"/>
<path d="M18.6666 12L10.6666 19.9995M18.6666 20L10.6666 12.0005" stroke="#0E1116" stroke-width="2" stroke-linecap="round" stroke-linejoin="round"/>
</svg>
