<svg width="37" height="37" viewBox="0 0 37 37" fill="none" xmlns="http://www.w3.org/2000/svg">
<g clip-path="url(#clip0_3_22)">
<path d="M37 18.5C37 8.28164 28.7184 0 18.5 0C8.28164 0 0 8.28164 0 18.5C0 27.7348 6.76117 35.3885 15.6108 36.7767V23.852H10.9172V18.5H15.6108V14.4249C15.6108 9.79199 18.3678 7.22801 22.5953 7.22801C24.6223 7.22801 26.7412 7.59295 26.7412 7.59295V12.1442H24.4099C22.1089 12.1442 21.3993 13.5737 21.3993 15.0334V18.5H26.5287L25.7078 23.852H21.3993V36.7767C30.2388 35.3885 37 27.7348 37 18.5Z" fill="#6A742B"/>
</g>
<defs>
<clipPath id="clip0_3_22">
<rect width="37" height="37" fill="white"/>
</clipPath>
</defs>
</svg>
