<svg width="37" height="37" viewBox="0 0 37 37" fill="none" xmlns="http://www.w3.org/2000/svg">
<g clip-path="url(#clip0_3_12)">
<path d="M18.5164 9.07353C18.191 9.07353 17.8692 9.09012 17.5521 9.1226C17.235 9.15508 16.9223 9.20321 16.615 9.26638C16.3076 9.32956 16.0057 9.40779 15.7098 9.50013L14.8415 9.81899L14.0147 10.2182L13.2345 10.6929L12.5055 11.2382L11.8329 11.8492L11.2212 12.5213L10.6754 13.2495L10.2001 14.0289L9.80059 14.8548C9.68052 15.1372 9.57372 15.4268 9.48126 15.7224C9.38881 16.0181 9.31058 16.3198 9.24728 16.6268C9.18398 16.9338 9.13586 17.2462 9.10326 17.563C9.07066 17.8799 9.05431 18.2013 9.05431 18.5263C9.05431 18.8514 9.0709 19.1728 9.10326 19.4897C9.13544 19.804 9.1835 20.1165 9.24728 20.426C9.31058 20.7341 9.38881 21.0347 9.48126 21.3304C9.57372 21.626 9.6804 21.9155 9.80059 22.198L10.2001 23.0239L10.6754 23.8032L11.2212 24.5315L11.8329 25.2036L12.5055 25.8146L13.2345 26.3599L14.0147 26.8346L14.8415 27.2338L15.7098 27.5527L16.615 27.7864C16.9247 27.8501 17.2375 27.8982 17.5521 27.9303C17.8725 27.963 18.1943 27.9793 18.5164 27.9793C18.8417 27.9793 19.1636 27.9627 19.4805 27.9303C19.7951 27.8982 20.1079 27.8501 20.4176 27.7864L21.3229 27.5527L22.1913 27.2338L23.0179 26.8346L23.7982 26.3599L24.5272 25.8146L25.2 25.2036L25.8116 24.5315L26.3575 23.8032L26.8328 23.0239L27.2323 22.198L27.5516 21.3304C27.644 21.0347 27.7223 20.733 27.7856 20.426L27.9296 19.4895C27.9621 19.1727 27.9787 18.8512 27.9787 18.5262C27.9787 18.2012 27.9621 17.8797 27.9296 17.5629C27.8974 17.2486 27.8493 16.9362 27.7856 16.6267C27.7223 16.3185 27.644 16.0181 27.5516 15.7223L27.2323 14.8546L26.8328 14.0288L26.3575 13.2493L25.8116 12.5212L25.2 11.8491L24.5272 11.2381L23.7982 10.6928L23.0179 10.2181L22.1913 9.81887L21.3229 9.50001L20.4176 9.26626L19.4805 9.12248C19.1602 9.08977 18.8384 9.07339 18.5164 9.07341V9.07353ZM18.5164 12.3363C18.7315 12.3363 18.9438 12.347 19.1529 12.368L19.7693 12.4613L20.3647 12.6131L20.9348 12.8201L21.4769 13.0797L21.9866 13.3885L22.4631 13.7438L22.9023 14.1423L23.3012 14.5811L23.6568 15.0571L23.9659 15.5675L24.2255 16.1092C24.3035 16.2946 24.3728 16.4846 24.433 16.6789C24.4932 16.8732 24.5438 17.0717 24.5847 17.2739C24.6256 17.4761 24.6558 17.6819 24.678 17.8909L24.7097 18.5269C24.7097 18.7418 24.6991 18.954 24.678 19.1631C24.6569 19.3722 24.6258 19.578 24.5847 19.7801C24.5436 19.9822 24.4928 20.1807 24.433 20.3751L24.2255 20.9448L23.9659 21.4865L23.6568 21.9968L23.3012 22.4729L22.9023 22.9117L22.4631 23.3102L21.9866 23.6655L21.4769 23.9743L20.9348 24.2339L20.3647 24.4409L19.7693 24.5927L19.1529 24.6858C18.9413 24.707 18.7289 24.7176 18.5162 24.7176C18.3036 24.7176 18.0911 24.707 17.8795 24.6858L17.2631 24.5927C17.0608 24.5516 16.8621 24.5009 16.6676 24.4409L16.0975 24.2339L15.5554 23.9743L15.0457 23.6655L14.5692 23.3102L14.1299 22.9117L13.731 22.4729L13.3754 21.9968L13.0663 21.4865L12.8067 20.9448L12.5993 20.3751L12.4476 19.7801L12.3543 19.1631C12.3331 18.9517 12.3225 18.7394 12.3225 18.5269C12.3225 18.3145 12.3331 18.1022 12.3543 17.8909C12.3753 17.6819 12.4064 17.476 12.4476 17.2739C12.4883 17.0732 12.539 16.8747 12.5994 16.679L12.8068 16.1093L13.0664 15.5676L13.3756 15.0572L13.7312 14.5812L14.13 14.1424L14.5693 13.7439L15.0458 13.3886L15.5555 13.0798L16.0976 12.8203C16.2841 12.7419 16.4745 12.6728 16.6678 12.6132L17.2633 12.4615C17.4657 12.4204 17.6717 12.3891 17.8797 12.3682C18.0913 12.347 18.3038 12.3364 18.5165 12.3364L18.5164 12.3363Z" fill="#6A742B"/>
<path d="M28.3622 6.38448C28.2871 6.38449 28.212 6.38829 28.1373 6.39585C28.0625 6.40341 27.9882 6.41473 27.9145 6.42976C27.8409 6.44477 27.7681 6.46348 27.6963 6.48582C27.6245 6.50817 27.5539 6.53413 27.4847 6.56358C27.4155 6.59307 27.3478 6.62602 27.2819 6.66232C27.216 6.69854 27.1519 6.73806 27.0899 6.78073C27.0279 6.82345 26.968 6.86926 26.9106 6.918C26.8531 6.96668 26.7981 7.01823 26.7458 7.07244C26.6935 7.12669 26.6438 7.18354 26.5971 7.24278C26.5505 7.30202 26.5067 7.36358 26.4662 7.42722C26.4256 7.49081 26.3882 7.5564 26.3542 7.62374C26.32 7.69114 26.2893 7.76021 26.2621 7.8307C26.2348 7.90118 26.2111 7.97298 26.1911 8.04584C26.171 8.1187 26.1545 8.19252 26.1417 8.26703C26.129 8.34152 26.1199 8.4166 26.1146 8.492C26.1108 8.54542 26.1089 8.59895 26.1089 8.6525C26.1089 8.72814 26.1127 8.80374 26.1202 8.87901C26.1277 8.95425 26.1389 9.02906 26.1538 9.10316C26.1688 9.17726 26.1873 9.25057 26.2095 9.3228C26.2318 9.39506 26.2576 9.46615 26.2868 9.53581C26.3161 9.60549 26.3488 9.67365 26.3849 9.74004C26.4209 9.80642 26.4601 9.87094 26.5026 9.93337C26.545 9.99576 26.5905 10.056 26.6389 10.1138C26.6873 10.1716 26.7385 10.227 26.7924 10.2797C26.8463 10.3324 26.9028 10.3823 26.9616 10.4293C27.0205 10.4763 27.0817 10.5204 27.1449 10.5612C27.2081 10.6021 27.2734 10.6398 27.3404 10.6741C27.4073 10.7084 27.4759 10.7393 27.5459 10.7668C27.6159 10.7942 27.6872 10.818 27.7596 10.8383C27.832 10.8584 27.9053 10.875 27.9794 10.8878C28.0534 10.9007 28.128 10.9098 28.2029 10.9152C28.256 10.919 28.3092 10.9209 28.3623 10.9209C28.4375 10.9209 28.5126 10.9171 28.5873 10.9096C28.6621 10.9021 28.7364 10.8907 28.8101 10.8757C28.8837 10.8607 28.9565 10.842 29.0283 10.8196C29.1 10.7973 29.1707 10.7713 29.2399 10.7419C29.309 10.7124 29.3767 10.6795 29.4427 10.6433C29.5086 10.607 29.5727 10.5674 29.6347 10.5247C29.6967 10.4821 29.7566 10.4363 29.814 10.3876C29.8715 10.3389 29.9265 10.2873 29.9788 10.233C30.0311 10.1788 30.0807 10.1219 30.1274 10.0627C30.1741 10.0034 30.2178 9.94189 30.2584 9.87825C30.299 9.81462 30.3364 9.74899 30.3704 9.6816C30.4045 9.61421 30.4353 9.54514 30.4625 9.47465C30.4897 9.40417 30.5134 9.33237 30.5335 9.25951C30.5536 9.18665 30.5701 9.11283 30.5828 9.03832C30.5956 8.96383 30.6047 8.88875 30.61 8.81335C30.6138 8.75993 30.6157 8.7064 30.6157 8.65285C30.6157 8.57724 30.6119 8.50168 30.6044 8.42645C30.5969 8.35122 30.5857 8.27641 30.5707 8.20231C30.5558 8.1282 30.5372 8.0549 30.515 7.98266C30.4928 7.91041 30.467 7.83932 30.4378 7.76966C30.4085 7.69998 30.3758 7.63181 30.3397 7.56543C30.3037 7.49905 30.2644 7.43452 30.222 7.3721C30.1796 7.30967 30.134 7.24942 30.0856 7.19157C30.0372 7.13372 29.9861 7.07833 29.9322 7.02562C29.8783 6.97295 29.8218 6.92303 29.7629 6.87603C29.7041 6.82905 29.6429 6.78506 29.5797 6.74423C29.5164 6.70335 29.4512 6.66569 29.3842 6.63138C29.3173 6.59705 29.2487 6.56612 29.1787 6.53869C29.1087 6.51129 29.0374 6.48744 28.965 6.46721C28.8926 6.44698 28.8192 6.4304 28.7452 6.41755C28.6712 6.40471 28.5966 6.39561 28.5217 6.39028C28.4686 6.38649 28.4154 6.3846 28.3622 6.3846V6.38448Z" fill="#6A742B"/>
<path d="M16.7221 0.0334563C15.6929 0.0317968 14.7745 0.0360634 13.9496 0.0476797L11.7377 0.106947C11.0825 0.135395 10.5035 0.172493 9.98389 0.220499C9.72407 0.244443 9.47894 0.271232 9.24661 0.300746C9.02553 0.328611 8.80505 0.361058 8.58532 0.398064C8.3761 0.433624 8.17756 0.472027 7.9872 0.513751C7.79683 0.555475 7.615 0.600519 7.43957 0.648881C7.26807 0.696171 7.09791 0.748189 6.92928 0.804872C6.76405 0.860583 6.60284 0.919613 6.44365 0.982672C6.12527 1.10879 5.81471 1.25032 5.49491 1.40892C5.24883 1.53101 5.02149 1.65464 4.80552 1.7855C4.58955 1.91636 4.38496 2.05457 4.18464 2.20511C3.97834 2.36089 3.7795 2.52631 3.58877 2.70082C3.3894 2.88241 3.18576 3.08214 2.97417 3.30534C2.7083 3.58425 2.47728 3.84431 2.27222 4.09951C2.16969 4.22705 2.07367 4.35317 1.98323 4.48C1.89379 4.605 1.80829 4.73276 1.72685 4.8631C1.64624 4.9923 1.56991 5.12388 1.49689 5.25924C1.42274 5.39694 1.35265 5.53679 1.28673 5.67861C1.15184 5.96831 1.02596 6.28029 0.900311 6.62854C0.807098 6.886 0.723631 7.14688 0.650087 7.41063C0.575055 7.68017 0.508321 7.96216 0.448817 8.26715C0.389313 8.57214 0.337395 8.90012 0.29176 9.26283C0.242583 9.66042 0.203296 10.0592 0.173937 10.4587C0.140748 10.898 0.113248 11.3814 0.0907268 11.9194L0.0373869 13.7083L0.00870167 15.889L0.000404358 18.5248L0.0247037 22.3578L0.100565 25.2619L0.159002 26.3963L0.232019 27.3362C0.255425 27.5896 0.284711 27.8424 0.319852 28.0944C0.351857 28.3182 0.386231 28.514 0.423213 28.6835C0.498254 29.0281 0.586987 29.3696 0.689203 29.7071C0.787073 30.0303 0.898996 30.3491 1.02465 30.6625C1.14816 30.9695 1.28329 31.2656 1.43027 31.5506C1.57726 31.8355 1.73609 32.1093 1.90678 32.3724C2.07747 32.6354 2.26001 32.8876 2.45488 33.1291C2.64953 33.3706 2.85657 33.6018 3.07516 33.8218C3.2941 34.0423 3.525 34.2521 3.76835 34.4514C4.01458 34.6531 4.27052 34.8426 4.53526 35.0192C4.78098 35.1835 5.02409 35.3339 5.26898 35.472C5.51387 35.6101 5.7609 35.7354 6.0148 35.8493C6.2687 35.9632 6.529 36.0658 6.80091 36.158C7.07283 36.2502 7.35612 36.3322 7.65554 36.405C7.95495 36.4778 8.27191 36.5417 8.60736 36.5974C8.94281 36.6531 9.30138 36.7009 9.68448 36.742C10.0676 36.7831 10.4763 36.8171 10.9154 36.8456C11.3546 36.874 11.824 36.8968 12.3284 36.915C13.1075 36.9433 14.2869 36.9597 15.647 36.966L20.0499 36.9571L24.2192 36.8987L25.8044 36.8541L26.8372 36.801C27.0589 36.783 27.2758 36.7617 27.4851 36.7367C27.6945 36.7116 27.9009 36.6831 28.102 36.6506C28.303 36.6181 28.4995 36.5819 28.6926 36.5416C28.8835 36.5018 29.0734 36.4574 29.2621 36.4084C29.4489 36.361 29.6331 36.3071 29.8154 36.2498C29.9977 36.1926 30.1781 36.1307 30.3574 36.0643C30.5378 35.9975 30.7165 35.9264 30.8934 35.8509C31.0716 35.775 31.2495 35.6939 31.428 35.6079C31.7022 35.4758 31.9229 35.3657 32.1167 35.2582C32.299 35.1582 32.4746 35.0464 32.6423 34.9234C32.8078 34.8016 32.9723 34.6629 33.1619 34.4882C33.3516 34.3135 33.5665 34.103 33.8326 33.8367C34.0665 33.603 34.2637 33.3998 34.4338 33.215C34.6039 33.0302 34.7472 32.8639 34.8729 32.7037C34.9926 32.5516 35.1042 32.3933 35.2071 32.2293C35.3075 32.0693 35.4 31.9031 35.4942 31.7188C35.636 31.4414 35.7621 31.1845 35.8751 30.9367C35.9847 30.6978 36.0849 30.4547 36.1754 30.2079C36.2645 29.9631 36.3417 29.7141 36.4067 29.4618C36.4735 29.2022 36.5311 28.9281 36.5809 28.6275C36.6307 28.3269 36.6728 27.9998 36.7093 27.6345C36.7458 27.2691 36.7769 26.8654 36.8041 26.4118L36.8764 24.889L36.9385 22.9952L36.9829 20.8853L36.9999 18.6791L36.9604 14.3461L36.9074 12.4054L36.8351 10.739L36.745 9.43992C36.7123 9.07839 36.6769 8.79368 36.6395 8.60118C36.598 8.38848 36.5517 8.17676 36.5006 7.96619C36.4508 7.7613 36.396 7.55764 36.3364 7.35539C36.2782 7.15835 36.2151 6.96283 36.147 6.76901C36.0796 6.57757 36.0083 6.39017 35.9336 6.2068C35.8589 6.02343 35.7781 5.84433 35.6939 5.66901C35.6098 5.4937 35.5216 5.32266 35.429 5.15553C35.3364 4.98839 35.24 4.82541 35.1391 4.66646C35.0382 4.5075 34.9332 4.35258 34.8238 4.20181C34.715 4.05151 34.6016 3.90466 34.4836 3.76145C34.3662 3.61904 34.2444 3.48036 34.1183 3.34564C33.9923 3.21108 33.8622 3.08055 33.7279 2.95424C33.5936 2.82788 33.4553 2.70556 33.3126 2.58726C33.1694 2.46857 33.0225 2.35437 32.8721 2.24482C32.7202 2.13414 32.5649 2.02813 32.4065 1.92691C32.246 1.82426 32.0824 1.72638 31.916 1.63342C31.7468 1.5389 31.5748 1.44925 31.4004 1.36459C31.111 1.22389 30.8433 1.09907 30.5805 0.988363C30.3222 0.878489 30.0589 0.780904 29.7913 0.695939C29.5222 0.611188 29.2422 0.538527 28.934 0.475823C28.6258 0.413119 28.2897 0.360845 27.9094 0.316395C27.529 0.271945 27.1043 0.23603 26.6185 0.20616C26.1328 0.176289 25.5865 0.152818 24.9626 0.133852L22.8425 0.0864397L20.1593 0.0547915L16.7232 0.0336914L16.7221 0.0334563ZM18.5066 3.29336L23.4616 3.32158L25.3309 3.35761C25.8457 3.37207 26.2385 3.38902 26.4688 3.40858C26.7687 3.43383 27.0544 3.46548 27.3276 3.50341C27.5898 3.53961 27.8507 3.58464 28.1099 3.63841C28.3588 3.69057 28.5963 3.74984 28.8235 3.81669C29.0507 3.88354 29.2678 3.95846 29.476 4.04131C29.6843 4.12417 29.8834 4.21532 30.0751 4.31512C30.2652 4.41418 30.45 4.52318 30.6286 4.64168C30.8064 4.75962 30.9778 4.88669 31.1443 5.0236C31.3107 5.1605 31.472 5.30725 31.6295 5.46419C31.7958 5.62978 31.9492 5.79845 32.0906 5.97246C32.2315 6.14539 32.3619 6.32664 32.481 6.51522C32.6014 6.7065 32.71 6.90502 32.806 7.10967C32.9041 7.31829 32.9923 7.53876 33.0715 7.7731C33.1507 8.00744 33.2212 8.25648 33.2837 8.52259C33.3491 8.80471 33.4039 9.0892 33.448 9.37544C33.4954 9.67889 33.5359 10.0025 33.5703 10.349C33.6047 10.6954 33.6331 11.0649 33.6566 11.4602C33.6753 11.7773 33.6917 12.1957 33.7055 12.6899L33.7403 14.3748L33.7668 18.5022L33.7366 22.6256L33.7003 24.3057L33.6504 25.5277C33.6158 26.0998 33.5793 26.5808 33.5357 26.9995C33.5138 27.2088 33.49 27.4025 33.4637 27.5842C33.4391 27.7559 33.4099 27.9269 33.3761 28.097C33.3453 28.2522 33.3095 28.4064 33.2689 28.5593C33.2299 28.7052 33.1861 28.8498 33.1374 28.9927C33.0884 29.1364 33.0351 29.2785 32.9775 29.419C32.9167 29.5673 32.8524 29.7142 32.7849 29.8596C32.7248 29.9894 32.6616 30.1156 32.5948 30.2385C32.5287 30.3602 32.4584 30.4796 32.3842 30.5965C32.3108 30.7123 32.2337 30.8248 32.1531 30.9337C32.0729 31.0423 31.9889 31.1479 31.9011 31.2504C31.8136 31.3525 31.7224 31.4514 31.6276 31.5468C31.5328 31.6422 31.4344 31.7343 31.3325 31.8232C31.2306 31.9121 31.1248 31.9974 31.0154 32.0797C30.906 32.162 30.7928 32.2409 30.6758 32.3165C30.5588 32.3922 30.4382 32.4647 30.3136 32.5339C30.189 32.6032 30.0605 32.6693 29.9283 32.7322C29.7939 32.7961 29.6576 32.856 29.5195 32.9117C29.3768 32.9693 29.2326 33.0228 29.0869 33.0723C28.7905 33.1733 28.478 33.262 28.1489 33.3384C27.806 33.4176 27.4599 33.4824 27.1115 33.5326C26.9776 33.5521 26.6697 33.5705 26.2288 33.5876L24.5485 33.6343L19.7846 33.6962L14.7984 33.704L12.8402 33.6831L11.5687 33.6435L10.6311 33.5776C10.34 33.5531 10.0692 33.5258 9.81558 33.4949C9.56191 33.4639 9.32568 33.4295 9.10343 33.3906C8.89281 33.3542 8.68348 33.3107 8.47579 33.2602C8.28642 33.2141 8.09898 33.1604 7.91394 33.0992C7.73555 33.04 7.56498 32.9748 7.39903 32.903C7.23308 32.8313 7.07188 32.7527 6.91221 32.6669C6.75255 32.5811 6.59454 32.4879 6.43476 32.3864C6.31421 32.3098 6.19769 32.2323 6.08556 32.1501C5.97343 32.068 5.86509 31.9861 5.76078 31.9003C5.65647 31.8144 5.55631 31.726 5.4597 31.635C5.36374 31.5444 5.27107 31.4504 5.18186 31.3531C5.09296 31.2561 5.00797 31.1563 4.92642 31.053C4.84455 30.9492 4.76655 30.8425 4.69255 30.7329C4.61747 30.6217 4.54642 30.5079 4.47955 30.3916C4.41199 30.2742 4.34774 30.1528 4.2867 30.0277C4.22463 29.9001 4.16671 29.7705 4.11304 29.6392C4.05852 29.5055 4.00684 29.3675 3.95824 29.2251C3.86104 28.94 3.7757 28.6365 3.7015 28.313C3.62729 27.9894 3.564 27.6456 3.51042 27.2793C3.45684 26.9131 3.4137 26.5248 3.37932 26.112C3.35396 25.808 3.3338 25.3344 3.3184 24.737L3.28615 22.6123L3.29801 17.1959L3.39129 12.0203L3.46241 10.1968L3.50272 9.59401C3.5167 9.43305 3.53116 9.3138 3.54598 9.24221C3.59482 9.00668 3.64401 8.78751 3.69486 8.58233C3.74236 8.38877 3.79521 8.19655 3.85334 8.0059C3.90857 7.82597 3.96677 7.65741 4.029 7.49775C4.08901 7.34308 4.15589 7.19117 4.22944 7.04246C4.30128 6.89785 4.37844 6.7594 4.46224 6.62463C4.54605 6.48986 4.63649 6.35912 4.73511 6.22908C4.83373 6.09905 4.93993 5.97068 5.05551 5.84053C5.17108 5.71038 5.29589 5.57893 5.43126 5.44344C5.58902 5.28479 5.75329 5.13273 5.92364 4.98768C6.0845 4.85083 6.25225 4.72229 6.42623 4.60257C6.59727 4.48403 6.7727 4.37854 6.95536 4.28158C7.13802 4.18462 7.32791 4.09702 7.52764 4.0182C7.72737 3.93937 7.93717 3.86884 8.15942 3.80484C8.39291 3.73934 8.62899 3.68347 8.86707 3.63735C9.11741 3.58828 9.38328 3.54548 9.66717 3.50815C9.95106 3.47081 10.2531 3.43857 10.576 3.41059C10.8012 3.39115 11.1893 3.37385 11.7003 3.35927L13.56 3.32252L18.5074 3.2923L18.5066 3.29336Z" fill="#6A742B"/>
</g>
<defs>
<clipPath id="clip0_3_12">
<rect width="37" height="37" fill="white"/>
</clipPath>
</defs>
</svg>
