<svg width="37" height="37" viewBox="0 0 37 37" fill="none" xmlns="http://www.w3.org/2000/svg">
<g clip-path="url(#clip0_3_17)">
<path d="M18.5 36.9996C28.7173 36.9996 37 28.7169 37 18.4996C37 8.28235 28.7173 -0.00038147 18.5 -0.00038147C8.28273 -0.00038147 0 8.28235 0 18.4996C0 28.7169 8.28273 36.9996 18.5 36.9996Z" fill="#6A742B"/>
<path d="M29.5536 19.9883V27.6154H25.1315V20.4995C25.1315 18.7127 24.4931 17.4925 22.892 17.4925C21.6702 17.4925 20.9443 18.314 20.6238 19.1094C20.5074 19.3937 20.4774 19.7884 20.4774 20.1872V27.6151H16.055C16.055 27.6151 16.1144 15.563 16.055 14.3154H20.4777V16.2001C20.4688 16.215 20.4563 16.2295 20.4483 16.2436H20.4777V16.2001C21.0654 15.2959 22.1134 14.0031 24.4631 14.0031C27.3724 14.0031 29.5536 15.904 29.5536 19.9883ZM11.4289 7.9045C9.91615 7.9045 8.92648 8.89746 8.92648 10.2021C8.92648 11.479 9.88746 12.5006 11.3708 12.5006H11.3995C12.9419 12.5006 13.9009 11.479 13.9009 10.2021C13.8715 8.89746 12.9419 7.9045 11.4289 7.9045ZM9.18932 27.6154H13.61V14.3154H9.18932V27.6154Z" fill="white"/>
</g>
<defs>
<clipPath id="clip0_3_17">
<rect width="37" height="37" fill="white"/>
</clipPath>
</defs>
</svg>
