<svg width="22" height="22" viewBox="0 0 22 22" fill="none" xmlns="http://www.w3.org/2000/svg">
<path d="M12.4829 19.5865C12.0854 19.9586 11.554 20.1667 11.001 20.1667C10.448 20.1667 9.91668 19.9586 9.51913 19.5865C5.8786 16.1572 0.999864 12.3264 3.37908 6.76473C4.66549 3.7576 7.75348 1.83337 11.001 1.83337C14.2486 1.83337 17.3366 3.7576 18.623 6.76473C20.9992 12.3194 16.1324 16.169 12.4829 19.5865Z" stroke="black" stroke-width="1.5"/>
<path d="M14.2084 10.0833C14.2084 11.8553 12.772 13.2917 11.0001 13.2917C9.22816 13.2917 7.79175 11.8553 7.79175 10.0833C7.79175 8.31142 9.22816 6.875 11.0001 6.875C12.772 6.875 14.2084 8.31142 14.2084 10.0833Z" stroke="black" stroke-width="1.5"/>
</svg>
