<svg width="214" height="54" viewBox="0 0 214 54" fill="none" xmlns="http://www.w3.org/2000/svg">
<path d="M30.6398 48.0757C29.6642 48.9892 28.3599 49.5 27.0025 49.5C25.645 49.5 24.3409 48.9892 23.3651 48.0757C14.4293 39.6585 2.45421 30.2555 8.29411 16.6042C11.4517 9.22311 19.0313 4.5 27.0025 4.5C34.9738 4.5 42.5533 9.22311 45.711 16.6042C51.5434 30.2384 39.5977 39.6875 30.6398 48.0757Z" stroke="#6A742B" stroke-width="3"/>
<path d="M34.875 24.75C34.875 29.0993 31.3493 32.625 27 32.625C22.6508 32.625 19.125 29.0993 19.125 24.75C19.125 20.4008 22.6508 16.875 27 16.875C31.3493 16.875 34.875 20.4008 34.875 24.75Z" stroke="#6A742B" stroke-width="3"/>
<path d="M50.984 31L56.056 19.8H57.64L62.728 31H61.048L56.52 20.696H57.16L52.632 31H50.984ZM53.144 28.2L53.576 26.92H59.88L60.344 28.2H53.144ZM68.6708 31.096C67.9454 31.096 67.2894 30.936 66.7028 30.616C66.1268 30.2853 65.6681 29.8 65.3268 29.16C64.9961 28.52 64.8307 27.72 64.8307 26.76C64.8307 25.8 65.0014 25 65.3428 24.36C65.6948 23.72 66.1588 23.24 66.7348 22.92C67.3214 22.6 67.9668 22.44 68.6708 22.44C69.5028 22.44 70.2388 22.6213 70.8788 22.984C71.5188 23.3467 72.0254 23.8533 72.3988 24.504C72.7721 25.144 72.9588 25.896 72.9588 26.76C72.9588 27.624 72.7721 28.3813 72.3988 29.032C72.0254 29.6827 71.5188 30.1893 70.8788 30.552C70.2388 30.9147 69.5028 31.096 68.6708 31.096ZM64.1748 31V19.128H65.7108V24.776L65.5508 26.744L65.6468 28.712V31H64.1748ZM68.5428 29.752C69.0868 29.752 69.5721 29.6293 69.9988 29.384C70.4361 29.1387 70.7774 28.792 71.0228 28.344C71.2788 27.8853 71.4068 27.3573 71.4068 26.76C71.4068 26.152 71.2788 25.6293 71.0228 25.192C70.7774 24.744 70.4361 24.3973 69.9988 24.152C69.5721 23.9067 69.0868 23.784 68.5428 23.784C68.0094 23.784 67.5241 23.9067 67.0868 24.152C66.6601 24.3973 66.3188 24.744 66.0628 25.192C65.8174 25.6293 65.6948 26.152 65.6948 26.76C65.6948 27.3573 65.8174 27.8853 66.0628 28.344C66.3188 28.792 66.6601 29.1387 67.0868 29.384C67.5241 29.6293 68.0094 29.752 68.5428 29.752ZM75.081 31V22.52H76.617V31H75.081ZM75.849 20.888C75.5503 20.888 75.2997 20.792 75.097 20.6C74.905 20.408 74.809 20.1733 74.809 19.896C74.809 19.608 74.905 19.368 75.097 19.176C75.2997 18.984 75.5503 18.888 75.849 18.888C76.1477 18.888 76.393 18.984 76.585 19.176C76.7877 19.3573 76.889 19.5867 76.889 19.864C76.889 20.152 76.793 20.3973 76.601 20.6C76.409 20.792 76.1583 20.888 75.849 20.888ZM83.0538 31.096C82.2324 31.096 81.4964 30.9147 80.8458 30.552C80.2058 30.1893 79.6991 29.6827 79.3258 29.032C78.9524 28.3813 78.7658 27.624 78.7658 26.76C78.7658 25.896 78.9524 25.144 79.3258 24.504C79.6991 23.8533 80.2058 23.3467 80.8458 22.984C81.4964 22.6213 82.2324 22.44 83.0538 22.44C83.7684 22.44 84.4138 22.6 84.9898 22.92C85.5658 23.24 86.0244 23.72 86.3658 24.36C86.7178 25 86.8938 25.8 86.8938 26.76C86.8938 27.72 86.7231 28.52 86.3818 29.16C86.0511 29.8 85.5978 30.2853 85.0218 30.616C84.4458 30.936 83.7898 31.096 83.0538 31.096ZM83.1818 29.752C83.7151 29.752 84.1951 29.6293 84.6218 29.384C85.0591 29.1387 85.4004 28.792 85.6458 28.344C85.9018 27.8853 86.0298 27.3573 86.0298 26.76C86.0298 26.152 85.9018 25.6293 85.6458 25.192C85.4004 24.744 85.0591 24.3973 84.6218 24.152C84.1951 23.9067 83.7151 23.784 83.1818 23.784C82.6378 23.784 82.1524 23.9067 81.7258 24.152C81.2991 24.3973 80.9578 24.744 80.7018 25.192C80.4458 25.6293 80.3178 26.152 80.3178 26.76C80.3178 27.3573 80.4458 27.8853 80.7018 28.344C80.9578 28.792 81.2991 29.1387 81.7258 29.384C82.1524 29.6293 82.6378 29.752 83.1818 29.752ZM86.0778 31V28.712L86.1737 26.744L86.0138 24.776V19.128H87.5498V31H86.0778ZM89.368 34.2C89.016 34.2 88.68 34.1573 88.36 34.072C88.0293 33.9867 87.752 33.8587 87.528 33.688L88.024 32.504C88.344 32.7707 88.76 32.904 89.272 32.904C89.6773 32.904 89.9867 32.776 90.2 32.52C90.424 32.2747 90.536 31.9067 90.536 31.416V22.52H92.072V31.384C92.072 32.248 91.8373 32.9307 91.368 33.432C90.9093 33.944 90.2427 34.2 89.368 34.2ZM91.304 20.888C91.0053 20.888 90.7547 20.792 90.552 20.6C90.36 20.408 90.264 20.1733 90.264 19.896C90.264 19.608 90.36 19.368 90.552 19.176C90.7547 18.984 91.0053 18.888 91.304 18.888C91.6027 18.888 91.848 18.984 92.04 19.176C92.2427 19.3573 92.344 19.5867 92.344 19.864C92.344 20.152 92.248 20.3973 92.056 20.6C91.864 20.792 91.6133 20.888 91.304 20.888ZM100.267 31V29.208L100.187 28.872V25.816C100.187 25.1653 99.9949 24.664 99.6109 24.312C99.2375 23.9493 98.6722 23.768 97.9149 23.768C97.4135 23.768 96.9229 23.8533 96.4429 24.024C95.9629 24.184 95.5575 24.4027 95.2269 24.68L94.5869 23.528C95.0242 23.176 95.5469 22.9093 96.1549 22.728C96.7735 22.536 97.4189 22.44 98.0909 22.44C99.2535 22.44 100.15 22.7227 100.779 23.288C101.408 23.8533 101.723 24.7173 101.723 25.88V31H100.267ZM97.4829 31.096C96.8535 31.096 96.2989 30.9893 95.8189 30.776C95.3495 30.5627 94.9869 30.2693 94.7309 29.896C94.4749 29.512 94.3469 29.08 94.3469 28.6C94.3469 28.1413 94.4535 27.7253 94.6669 27.352C94.8909 26.9787 95.2482 26.68 95.7389 26.456C96.2402 26.232 96.9122 26.12 97.7549 26.12H100.443V27.224H97.8189C97.0509 27.224 96.5335 27.352 96.2669 27.608C96.0002 27.864 95.8669 28.1733 95.8669 28.536C95.8669 28.952 96.0322 29.288 96.3629 29.544C96.6935 29.7893 97.1522 29.912 97.7389 29.912C98.3149 29.912 98.8162 29.784 99.2429 29.528C99.6802 29.272 99.9949 28.8987 100.187 28.408L100.491 29.464C100.288 29.9653 99.9309 30.3653 99.4189 30.664C98.9069 30.952 98.2615 31.096 97.4829 31.096ZM109.093 22.44C109.787 22.44 110.395 22.5733 110.917 22.84C111.451 23.1067 111.867 23.512 112.165 24.056C112.464 24.6 112.613 25.288 112.613 26.12V31H111.077V26.296C111.077 25.4747 110.875 24.856 110.469 24.44C110.075 24.024 109.515 23.816 108.789 23.816C108.245 23.816 107.771 23.9227 107.365 24.136C106.96 24.3493 106.645 24.664 106.421 25.08C106.208 25.496 106.101 26.0133 106.101 26.632V31H104.565V22.52H106.037V24.808L105.797 24.2C106.075 23.6453 106.501 23.2133 107.077 22.904C107.653 22.5947 108.325 22.44 109.093 22.44ZM114.848 33.368L115.648 30.136L115.856 31.064C115.547 31.064 115.285 30.968 115.072 30.776C114.869 30.584 114.768 30.3227 114.768 29.992C114.768 29.672 114.869 29.4107 115.072 29.208C115.285 29.0053 115.541 28.904 115.84 28.904C116.149 28.904 116.4 29.0107 116.592 29.224C116.784 29.4267 116.88 29.6827 116.88 29.992C116.88 30.0987 116.869 30.2053 116.848 30.312C116.837 30.408 116.811 30.5253 116.768 30.664C116.736 30.792 116.683 30.952 116.608 31.144L115.856 33.368H114.848ZM123.602 31V19.8H125.202V31H123.602ZM130.555 31L126.843 22.52H128.443L131.739 30.2H130.971L134.331 22.52H135.835L132.123 31H130.555ZM140.666 31.096C139.813 31.096 139.055 30.9093 138.394 30.536C137.733 30.1627 137.21 29.6507 136.826 29C136.442 28.3387 136.25 27.592 136.25 26.76C136.25 25.9173 136.442 25.1707 136.826 24.52C137.21 23.8693 137.733 23.3627 138.394 23C139.055 22.6267 139.813 22.44 140.666 22.44C141.509 22.44 142.261 22.6267 142.922 23C143.594 23.3627 144.117 23.8693 144.49 24.52C144.874 25.16 145.066 25.9067 145.066 26.76C145.066 27.6027 144.874 28.3493 144.49 29C144.117 29.6507 143.594 30.1627 142.922 30.536C142.261 30.9093 141.509 31.096 140.666 31.096ZM140.666 29.752C141.21 29.752 141.695 29.6293 142.122 29.384C142.559 29.1387 142.901 28.792 143.146 28.344C143.391 27.8853 143.514 27.3573 143.514 26.76C143.514 26.152 143.391 25.6293 143.146 25.192C142.901 24.744 142.559 24.3973 142.122 24.152C141.695 23.9067 141.21 23.784 140.666 23.784C140.122 23.784 139.637 23.9067 139.21 24.152C138.783 24.3973 138.442 24.744 138.186 25.192C137.93 25.6293 137.802 26.152 137.802 26.76C137.802 27.3573 137.93 27.8853 138.186 28.344C138.442 28.792 138.783 29.1387 139.21 29.384C139.637 29.6293 140.122 29.752 140.666 29.752ZM147.19 31V22.52H148.662V24.824L148.518 24.248C148.753 23.6613 149.148 23.2133 149.702 22.904C150.257 22.5947 150.94 22.44 151.75 22.44V23.928C151.686 23.9173 151.622 23.912 151.558 23.912C151.505 23.912 151.452 23.912 151.398 23.912C150.577 23.912 149.926 24.1573 149.446 24.648C148.966 25.1387 148.726 25.848 148.726 26.776V31H147.19ZM154.355 34.2C153.95 34.2 153.555 34.1307 153.171 33.992C152.787 33.864 152.457 33.672 152.179 33.416L152.835 32.264C153.049 32.4667 153.283 32.6213 153.539 32.728C153.795 32.8347 154.067 32.888 154.355 32.888C154.729 32.888 155.038 32.792 155.283 32.6C155.529 32.408 155.758 32.0667 155.971 31.576L156.499 30.408L156.659 30.216L159.987 22.52H161.491L157.379 31.848C157.134 32.4453 156.857 32.9147 156.547 33.256C156.249 33.5973 155.918 33.8373 155.555 33.976C155.193 34.1253 154.793 34.2 154.355 34.2ZM156.371 31.272L152.499 22.52H154.099L157.395 30.072L156.371 31.272ZM172.454 31.128C171.6 31.128 170.811 30.9893 170.086 30.712C169.371 30.424 168.747 30.024 168.214 29.512C167.691 28.9893 167.28 28.3813 166.982 27.688C166.683 26.9947 166.534 26.232 166.534 25.4C166.534 24.568 166.683 23.8053 166.982 23.112C167.28 22.4187 167.696 21.816 168.23 21.304C168.763 20.7813 169.387 20.3813 170.102 20.104C170.827 19.816 171.616 19.672 172.47 19.672C173.334 19.672 174.128 19.8213 174.854 20.12C175.59 20.408 176.214 20.84 176.726 21.416L175.686 22.424C175.259 21.976 174.779 21.6453 174.246 21.432C173.712 21.208 173.142 21.096 172.534 21.096C171.904 21.096 171.318 21.2027 170.774 21.416C170.24 21.6293 169.776 21.928 169.382 22.312C168.987 22.696 168.678 23.1547 168.454 23.688C168.24 24.2107 168.134 24.7813 168.134 25.4C168.134 26.0187 168.24 26.5947 168.454 27.128C168.678 27.6507 168.987 28.104 169.382 28.488C169.776 28.872 170.24 29.1707 170.774 29.384C171.318 29.5973 171.904 29.704 172.534 29.704C173.142 29.704 173.712 29.5973 174.246 29.384C174.779 29.16 175.259 28.8187 175.686 28.36L176.726 29.368C176.214 29.944 175.59 30.3813 174.854 30.68C174.128 30.9787 173.328 31.128 172.454 31.128ZM182.057 31.096C181.203 31.096 180.446 30.9093 179.785 30.536C179.123 30.1627 178.601 29.6507 178.217 29C177.833 28.3387 177.641 27.592 177.641 26.76C177.641 25.9173 177.833 25.1707 178.217 24.52C178.601 23.8693 179.123 23.3627 179.785 23C180.446 22.6267 181.203 22.44 182.057 22.44C182.899 22.44 183.651 22.6267 184.313 23C184.985 23.3627 185.507 23.8693 185.881 24.52C186.265 25.16 186.457 25.9067 186.457 26.76C186.457 27.6027 186.265 28.3493 185.881 29C185.507 29.6507 184.985 30.1627 184.313 30.536C183.651 30.9093 182.899 31.096 182.057 31.096ZM182.057 29.752C182.601 29.752 183.086 29.6293 183.513 29.384C183.95 29.1387 184.291 28.792 184.537 28.344C184.782 27.8853 184.905 27.3573 184.905 26.76C184.905 26.152 184.782 25.6293 184.537 25.192C184.291 24.744 183.95 24.3973 183.513 24.152C183.086 23.9067 182.601 23.784 182.057 23.784C181.513 23.784 181.027 23.9067 180.601 24.152C180.174 24.3973 179.833 24.744 179.577 25.192C179.321 25.6293 179.193 26.152 179.193 26.76C179.193 27.3573 179.321 27.8853 179.577 28.344C179.833 28.792 180.174 29.1387 180.601 29.384C181.027 29.6293 181.513 29.752 182.057 29.752ZM193.767 31V29.208L193.687 28.872V25.816C193.687 25.1653 193.495 24.664 193.111 24.312C192.738 23.9493 192.172 23.768 191.415 23.768C190.914 23.768 190.423 23.8533 189.943 24.024C189.463 24.184 189.058 24.4027 188.727 24.68L188.087 23.528C188.524 23.176 189.047 22.9093 189.655 22.728C190.274 22.536 190.919 22.44 191.591 22.44C192.754 22.44 193.65 22.7227 194.279 23.288C194.908 23.8533 195.223 24.7173 195.223 25.88V31H193.767ZM190.983 31.096C190.354 31.096 189.799 30.9893 189.319 30.776C188.85 30.5627 188.487 30.2693 188.231 29.896C187.975 29.512 187.847 29.08 187.847 28.6C187.847 28.1413 187.954 27.7253 188.167 27.352C188.391 26.9787 188.748 26.68 189.239 26.456C189.74 26.232 190.412 26.12 191.255 26.12H193.943V27.224H191.319C190.551 27.224 190.034 27.352 189.767 27.608C189.5 27.864 189.367 28.1733 189.367 28.536C189.367 28.952 189.532 29.288 189.863 29.544C190.194 29.7893 190.652 29.912 191.239 29.912C191.815 29.912 192.316 29.784 192.743 29.528C193.18 29.272 193.495 28.8987 193.687 28.408L193.991 29.464C193.788 29.9653 193.431 30.3653 192.919 30.664C192.407 30.952 191.762 31.096 190.983 31.096ZM200.497 31.096C199.793 31.096 199.121 31 198.481 30.808C197.852 30.616 197.356 30.3813 196.993 30.104L197.633 28.888C197.996 29.1333 198.444 29.3413 198.977 29.512C199.511 29.6827 200.055 29.768 200.609 29.768C201.324 29.768 201.836 29.6667 202.145 29.464C202.465 29.2613 202.625 28.9787 202.625 28.616C202.625 28.3493 202.529 28.1413 202.337 27.992C202.145 27.8427 201.889 27.7307 201.569 27.656C201.26 27.5813 200.913 27.5173 200.529 27.464C200.145 27.4 199.761 27.3253 199.377 27.24C198.993 27.144 198.641 27.016 198.321 26.856C198.001 26.6853 197.745 26.456 197.553 26.168C197.361 25.8693 197.265 25.4747 197.265 24.984C197.265 24.472 197.409 24.024 197.697 23.64C197.985 23.256 198.391 22.9627 198.913 22.76C199.447 22.5467 200.076 22.44 200.801 22.44C201.356 22.44 201.916 22.5093 202.481 22.648C203.057 22.776 203.527 22.9627 203.889 23.208L203.233 24.424C202.849 24.168 202.449 23.992 202.033 23.896C201.617 23.8 201.201 23.752 200.785 23.752C200.113 23.752 199.612 23.864 199.281 24.088C198.951 24.3013 198.785 24.5787 198.785 24.92C198.785 25.208 198.881 25.432 199.073 25.592C199.276 25.7413 199.532 25.8587 199.841 25.944C200.161 26.0293 200.513 26.104 200.897 26.168C201.281 26.2213 201.665 26.296 202.049 26.392C202.433 26.4773 202.78 26.6 203.089 26.76C203.409 26.92 203.665 27.144 203.857 27.432C204.06 27.72 204.161 28.104 204.161 28.584C204.161 29.096 204.012 29.5387 203.713 29.912C203.415 30.2853 202.993 30.5787 202.449 30.792C201.905 30.9947 201.255 31.096 200.497 31.096ZM208.993 31.096C208.14 31.096 207.478 30.8667 207.009 30.408C206.54 29.9493 206.305 29.2933 206.305 28.44V20.664H207.841V28.376C207.841 28.8347 207.953 29.1867 208.177 29.432C208.412 29.6773 208.742 29.8 209.169 29.8C209.649 29.8 210.049 29.6667 210.369 29.4L210.849 30.504C210.614 30.7067 210.332 30.856 210.001 30.952C209.681 31.048 209.345 31.096 208.993 31.096ZM204.865 23.784V22.52H210.273V23.784H204.865Z" fill="#6A742B"/>
</svg>
