<?xml version="1.0" encoding="utf-8"?>
<!-- Generator: Adobe Illustrator 28.2.0, SVG Export Plug-In . SVG Version: 6.00 Build 0)  -->
<svg version="1.1" id="Layer_1" xmlns="http://www.w3.org/2000/svg" xmlns:xlink="http://www.w3.org/1999/xlink" x="0px" y="0px"
	 viewBox="0 0 233.9 74.2" style="enable-background:new 0 0 233.9 74.2;" xml:space="preserve">
<style type="text/css">
	.st0{fill:#FFFFFF;}
</style>
<g>
	<g>
		<path class="st0" d="M28.1,56c0,0-12,10.6-16.5,14.5c-1.6,1.4-1.6,1.4-3-0.3c-1.8-2.2-4-4.2-5.5-6.8c-1.8-3-2.2-6.2-1.4-9.6
			c0.9-4,3.3-7.2,5.5-10.5c2.4-3.8,5.1-7.3,7-11.4c1.3-2.8,2.2-5.7,1.5-8.8c-0.4-1.7-1.2-3.3-2.4-4.5c-0.7-0.7-0.7-1,0.3-1.5
			c3.4-1.6,6.8-3.4,10.3-4.8c3.4-1.4,6.9-2.7,10.5-3.2c1.6-0.2,3.2-0.4,4.8,0.4c1.4,0.7,2,2.5,1.7,4.2c-0.3,1.8-2.1,6.5-2.2,6.8
			c-2.1,5-4.8,9.7-7.3,14.5c-2,3.9-3.9,7.7-5.4,11.8C23.7,52.3,27.1,55.4,28.1,56z"/>
	</g>
	<g>
		<g>
			<path class="st0" d="M66.6,9.5c-1.5-0.8-3.2-0.6-4.8-0.4c-3.7,0.5-7.1,1.9-10.5,3.2c-3.5,1.4-6.8,3.2-10.3,4.8
				c-0.9,0.4-0.9,0.8-0.3,1.5c1.2,1.3,2,2.8,2.4,4.5c0.7,3.1-0.2,6-1.5,8.8c-1.8,4.1-4.6,7.6-7,11.4c-2.1,3.3-4.6,6.5-5.5,10.5
				c-0.8,3.4-0.4,6.6,1.4,9.6c1.5,2.5,3.6,4.5,5.5,6.8c1.4,1.7,1.4,1.7,3,0.3C43.6,66.6,55.6,56,55.6,56c-1.1-0.6-4.4-3.7-2.2-9.3
				c1.6-4.1,3.5-7.9,5.4-11.8c2.5-4.8,5.2-9.5,7.3-14.5c0.1-0.3,1.9-5,2.2-6.8C68.6,12,68,10.2,66.6,9.5z"/>
		</g>
	</g>
	<g>
		<g>
			<g>
				<path class="st0" d="M93.1,12.1c-3,0-5.8,1.3-7.9,4.3h-0.1l0.5-3.8h-5.8c-0.3,1.8-0.6,4.1-1.2,6.9l-2.7,14.2h6.5l1.6-8.8
					c0.9-4.9,3.5-7.6,5.8-7.6c1.8,0,2.4,1.2,2.4,2.8c0,0.8-0.1,1.7-0.2,2.4l-2.1,11.2h6.5l2.3-12.1c0.1-0.9,0.3-2.5,0.3-3.4
					C98.9,14.2,96.7,12.1,93.1,12.1z"/>
			</g>
		</g>
		<g>
			<g>
				<path class="st0" d="M115.9,12.1c-7.8,0-13.3,5.6-13.3,12.9c0,6,4.4,9.2,9.8,9.2c7.6,0,13.5-5,13.5-13
					C125.8,15.8,121.7,12.1,115.9,12.1z M113.3,29.2c-2.3,0-3.9-1.6-3.9-4.3c0-3.1,1.8-7.9,5.8-7.9c2.9,0,3.9,2.3,3.9,4.5
					C119,25,116.9,29.2,113.3,29.2z"/>
			</g>
		</g>
		<g>
			<g>
				<path class="st0" d="M139.3,20.9c-1.9-0.8-2.9-1.6-2.9-2.4c0-1,1.1-1.7,2.7-1.7c2.2,0,3.8,0.6,4.8,1l1.6-4.5
					c-1.1-0.6-3.2-1.2-5.9-1.2c-5.6,0-9.7,2.8-9.7,7.3c0,2.9,2.4,4.6,5.1,5.7c2.1,0.9,2.8,1.6,2.8,2.6c0,1-0.9,1.8-2.7,1.8
					c-2.2,0-4.9-1-6.2-1.7l-1.6,4.5c1.4,1.1,4.2,1.8,7.1,1.8c5.8,0,10.2-2.6,10.2-7.5C144.6,23.3,141.6,21.8,139.3,20.9z"/>
			</g>
		</g>
		<g>
			<g>
				<path class="st0" d="M171.3,13.2c-1.9-0.6-4.8-1.1-7.4-1.1c-10.8,0-16,7.1-16,14.4c0,4.6,3,7.7,7,7.7c2.7,0,5.6-1.2,7.7-4.9h0.1
					c-0.1,1.6-0.3,3.1-0.3,4.4h6c-0.1-2.7,0.3-6.9,0.8-9.7L171.3,13.2z M163.2,21.4c-1,5.6-3.6,7.6-5.6,7.6c-1.8,0-2.9-1.5-2.9-3.6
					c0-4.2,3.3-8.4,7.4-8.4c0.7,0,1.4,0.1,1.9,0.2L163.2,21.4z"/>
			</g>
		</g>
		<g>
			<g>
				<path class="st0" d="M188.6,7.7c0.8,0,1.5,0.1,2.1,0.4l1-5.2c-0.7-0.3-1.8-0.6-3.3-0.6c-2.1,0-4.4,0.5-6.2,2
					c-2.2,1.8-3.2,4.6-3.7,7.1l-0.2,1.2h-2.7l-1,5h2.7l-3,16h6.4l3-16h4.1l1-5h-4.2l0.2-1.1C185.3,9.3,186.6,7.7,188.6,7.7z"/>
			</g>
		</g>
		<g>
			<g>
				<path class="st0" d="M203.6,17.1c1.5,0,2.5,0.3,3.3,0.6l1.6-4.9c-1.1-0.4-2.9-0.8-4.8-0.8c-8.5,0-14.6,5.6-14.6,13.1
					c0,6,4.3,9,9.6,9c2.8,0,5.1-0.5,6.7-1.3l-0.2-4.9c-1.2,0.5-2.6,1-4.7,1c-2.5,0-4.6-1.4-4.6-4.5
					C195.9,20.7,198.8,17.1,203.6,17.1z"/>
			</g>
		</g>
		<g>
			<g>
				<path class="st0" d="M222.5,12.1c-7.8,0-13.3,5.6-13.3,12.9c0,6,4.4,9.2,9.8,9.2c7.6,0,13.5-5,13.5-13
					C232.4,15.8,228.3,12.1,222.5,12.1z M219.9,29.2c-2.3,0-3.9-1.6-3.9-4.3c0-3.1,1.8-7.9,5.8-7.9c2.9,0,3.9,2.3,3.9,4.5
					C225.6,25,223.5,29.2,219.9,29.2z"/>
			</g>
		</g>
	</g>
	<g>
		<g>
			<g>
				<path class="st0" d="M81.3,46.7c1.5,0,2.7,0.5,3.4,0.8l1.1-2.9c-0.7-0.4-2.1-1-4.2-1c-4.2,0-7.4,2.6-7.4,6.5
					c0,2.4,1.6,4,3.8,5.4c1.9,1.2,2.7,2.1,2.7,3.6c0,2-1.7,3.2-3.8,3.2c-1.7,0-3.2-0.5-4.2-1.2l-1.1,2.9c0.8,0.6,2.7,1.3,5,1.3
					c4.5,0,7.7-2.6,7.7-6.9c0-2.4-1.4-4.1-3.7-5.5c-1.9-1.2-2.9-2.1-2.9-3.5C77.8,48.1,79.1,46.7,81.3,46.7z"/>
			</g>
		</g>
		<g>
			<g>
				<polygon class="st0" points="94.7,43.9 94,47.1 99.3,47.1 95.8,65.1 99.4,65.1 102.8,47.1 108,47.1 108.6,43.9 				"/>
			</g>
		</g>
		<g>
			<g>
				<path class="st0" d="M124.1,43.6c-2.5,0-4.8,1-6.5,2.6c-2.7,2.6-4.1,7.1-4.1,11c0,4,2.2,8.2,7.3,8.2c2.6,0,4.9-1,6.6-2.7
					c2.6-2.5,4-7.1,4-11C131.4,47.7,129.3,43.6,124.1,43.6z M124.7,61c-0.9,0.9-2.1,1.5-3.4,1.5c-3.1,0-4.1-2.6-4.1-5.3
					c0-2.9,1.1-7.1,3-9.1c0.9-0.9,2.1-1.5,3.4-1.5c3.3,0,4,2.7,4,5.2C127.6,54.4,126.6,59,124.7,61z"/>
			</g>
		</g>
		<g>
			<g>
				<path class="st0" d="M149.4,55.2L149.4,55.2c2.6-0.9,4.7-3.2,4.7-6.3c0-1.6-0.7-2.9-1.8-3.7c-1.2-1-3.1-1.4-5-1.4
					c-1.7,0-3.5,0.2-4.8,0.5l-4,20.9h3.5l1.7-8.8h1.5c1.8,0,2.7,1,2.8,3.7c0.1,2.5,0.3,4.5,0.4,5.1h3.6c-0.3-0.8-0.4-3.2-0.6-5.8
					C151.3,57.1,150.7,55.7,149.4,55.2z M146,53.7h-1.7l1.3-6.9c0.4-0.1,0.9-0.2,1.7-0.2c2,0,3.2,1,3.2,2.8
					C150.5,51.7,148.7,53.7,146,53.7z"/>
			</g>
		</g>
		<g>
			<g>
				<polygon class="st0" points="175.4,47 176,43.9 165.2,43.9 161.2,65.1 172.4,65.1 173,62.1 165.3,62.1 166.5,55.6 173.3,55.6 
					173.9,52.7 167.1,52.7 168.2,47 				"/>
			</g>
		</g>
	</g>
</g>
</svg>
