<svg width="34" height="34" viewBox="0 0 34 34" fill="none" xmlns="http://www.w3.org/2000/svg">
<path d="M9.91665 21.2534L9.92894 21.2502M31.1666 17C31.1666 9.176 24.8239 2.83337 17 2.83337C9.17594 2.83337 2.83331 9.176 2.83331 17C2.83331 24.824 9.17594 31.1667 17 31.1667C18.1924 31.1667 19.8333 31.3315 19.8333 29.75C19.8333 28.8873 19.3845 28.2217 18.9388 27.5604C18.2866 26.593 17.6407 25.635 18.4166 24.0834C19.3611 22.1945 20.9352 22.1945 23.3488 22.1945C24.5556 22.1945 25.9723 22.1945 27.625 21.9584C30.6014 21.5332 31.1666 19.7036 31.1666 17ZM15.5833 12.0417C15.5833 13.2153 14.6319 14.1667 13.4583 14.1667C12.2847 14.1667 11.3333 13.2153 11.3333 12.0417C11.3333 10.8681 12.2847 9.91671 13.4583 9.91671C14.6319 9.91671 15.5833 10.8681 15.5833 12.0417ZM25.5 13.4584C25.5 14.632 24.5486 15.5834 23.375 15.5834C22.2014 15.5834 21.25 14.632 21.25 13.4584C21.25 12.2848 22.2014 11.3334 23.375 11.3334C24.5486 11.3334 25.5 12.2848 25.5 13.4584Z" stroke="#22577A" stroke-width="2" stroke-linecap="round"/>
</svg>
