<svg width="34" height="34" viewBox="0 0 34 34" fill="none" xmlns="http://www.w3.org/2000/svg">
<path d="M4.83576 24.858L4.32149 25.7156L4.32149 25.7156L4.83576 24.858ZM3.20838 23.126L2.31778 23.5808L2.3178 23.5808L3.20838 23.126ZM3.10061 17.7119L4.09527 17.8152L4.09527 17.8152L3.10061 17.7119ZM4.08967 13.2187L4.91075 13.7895L4.91076 13.7895L4.08967 13.2187ZM5.67794 11.8342L5.22064 10.9449L5.22064 10.9449L5.67794 11.8342ZM28.322 11.8342L27.8647 12.7235L27.8647 12.7235L28.322 11.8342ZM29.9103 13.2187L30.7314 12.6479L30.7314 12.6479L29.9103 13.2187ZM30.8993 17.7119L29.9047 17.8152L29.9047 17.8152L30.8993 17.7119ZM30.7915 23.126L29.9009 22.6712L29.9009 22.6712L30.7915 23.126ZM29.1642 24.858L28.65 24.0004L28.6499 24.0004L29.1642 24.858ZM23.0833 11.3334C23.0833 11.8857 23.531 12.3334 24.0833 12.3334C24.6356 12.3334 25.0833 11.8857 25.0833 11.3334H23.0833ZM23.2534 3.66324L22.5463 4.37036L22.5463 4.37036L23.2534 3.66324ZM10.7465 3.66324L11.4536 4.37036L11.4536 4.37034L10.7465 3.66324ZM8.91665 11.3334C8.91665 11.8857 9.36437 12.3334 9.91665 12.3334C10.4689 12.3334 10.9166 11.8857 10.9166 11.3334H8.91665ZM12.3134 22.821L12.6631 23.7578L12.6633 23.7578L12.3134 22.821ZM10.9738 23.9557L10.116 23.4417L10.1159 23.4418L10.9738 23.9557ZM10.3825 25.8859L9.40804 25.6614L9.40804 25.6614L10.3825 25.8859ZM9.95574 28.9211L8.9743 29.1129L8.97431 29.113L9.95574 28.9211ZM11.3652 30.8797L11.8332 29.9959L11.833 29.9958L11.3652 30.8797ZM22.6348 30.8797L22.167 29.9959L22.1668 29.9959L22.6348 30.8797ZM24.0442 28.9211L23.0628 28.7294L23.0628 28.7294L24.0442 28.9211ZM23.6175 25.8859L24.592 25.6614V25.6614L23.6175 25.8859ZM23.0262 23.9557L23.8841 23.4419L23.8839 23.4416L23.0262 23.9557ZM21.6866 22.821L21.3367 23.7578L21.3369 23.7578L21.6866 22.821ZM25.5 16C24.9477 16 24.5 16.4478 24.5 17C24.5 17.5523 24.9477 18 25.5 18V16ZM25.5127 18C26.065 18 26.5127 17.5523 26.5127 17C26.5127 16.4478 26.065 16 25.5127 16V18ZM10.4181 24.5C8.89561 24.5 7.8209 24.4991 6.99077 24.4239C6.17167 24.3497 5.69984 24.2101 5.35003 24.0004L4.32149 25.7156C5.04238 26.1479 5.85785 26.3294 6.8103 26.4157C7.75172 26.501 8.93283 26.5 10.4181 26.5V24.5ZM5.35003 24.0004C4.80753 23.6751 4.37578 23.2132 4.09896 22.6712L2.3178 23.5808C2.76866 24.4636 3.46444 25.2017 4.32149 25.7156L5.35003 24.0004ZM4.09897 22.6712C3.9245 22.3295 3.8287 21.88 3.83349 21.0973C3.83835 20.3005 3.94355 19.2765 4.09527 17.8152L2.10596 17.6086C1.95839 19.03 1.83912 20.1679 1.83352 21.085C1.82784 22.0161 1.93556 22.8323 2.31778 23.5808L4.09897 22.6712ZM4.09527 17.8152C4.22204 16.5941 4.31125 15.7439 4.43987 15.0862C4.56545 14.444 4.7138 14.0728 4.91075 13.7895L3.2686 12.6479C2.85124 13.2482 2.62997 13.9204 2.47705 14.7024C2.32718 15.4687 2.22901 16.4234 2.10596 17.6086L4.09527 17.8152ZM4.91076 13.7895C5.21898 13.3461 5.6386 12.9789 6.13524 12.7235L5.22064 10.9449C4.43837 11.3472 3.76699 11.9309 3.26859 12.6479L4.91076 13.7895ZM6.13524 12.7235C6.45855 12.5573 6.86993 12.4497 7.55496 12.3925C8.25314 12.3342 9.1459 12.3334 10.4181 12.3334V10.3334C9.1795 10.3334 8.18917 10.3326 7.38847 10.3994C6.57461 10.4674 5.8713 10.6103 5.22064 10.9449L6.13524 12.7235ZM10.4181 12.3334H23.5818V10.3334H10.4181V12.3334ZM23.5818 12.3334C24.8541 12.3334 25.7468 12.3342 26.445 12.3925C27.13 12.4497 27.5414 12.5573 27.8647 12.7235L28.7793 10.9449C28.1286 10.6103 27.4254 10.4674 26.6115 10.3994C25.8108 10.3326 24.8205 10.3334 23.5818 10.3334V12.3334ZM27.8647 12.7235C28.3614 12.9789 28.7811 13.3462 29.0893 13.7895L30.7314 12.6479C30.233 11.9309 29.5615 11.3471 28.7793 10.9449L27.8647 12.7235ZM29.0893 13.7895C29.2862 14.0728 29.4345 14.444 29.5601 15.0862C29.6887 15.7439 29.7779 16.594 29.9047 17.8152L31.894 17.6087C31.771 16.4234 31.6728 15.4688 31.5229 14.7024C31.37 13.9204 31.1488 13.2482 30.7314 12.6479L29.0893 13.7895ZM29.9047 17.8152C30.0564 19.2765 30.1616 20.3005 30.1665 21.0972C30.1712 21.88 30.0754 22.3295 29.9009 22.6712L31.6821 23.5808C32.0644 22.8324 32.1721 22.0162 32.1664 21.085C32.1608 20.1679 32.0416 19.03 31.894 17.6086L29.9047 17.8152ZM29.9009 22.6712C29.6241 23.2133 29.1925 23.6751 28.65 24.0004L29.6784 25.7157C30.5356 25.2017 31.2313 24.4636 31.6821 23.5808L29.9009 22.6712ZM28.6499 24.0004C28.3001 24.2101 27.8283 24.3497 27.0092 24.4239C26.1791 24.4991 25.1044 24.5 23.5818 24.5V26.5C25.0671 26.5 26.2483 26.501 27.1897 26.4157C28.1421 26.3294 28.9576 26.1479 29.6785 25.7156L28.6499 24.0004ZM25.0833 11.3334V8.50004H23.0833V11.3334H25.0833ZM25.0833 8.50004C25.0833 7.19266 25.0854 6.11153 24.9707 5.25785C24.852 4.3754 24.5922 3.58782 23.9605 2.95612L22.5463 4.37036C22.7445 4.56852 22.8997 4.86369 22.9885 5.52435C23.0812 6.21378 23.0833 7.13612 23.0833 8.50004H25.0833ZM23.9605 2.95613C23.3288 2.32443 22.5413 2.06467 21.6588 1.94603C20.8051 1.83125 19.724 1.83337 18.4167 1.83337V3.83337C19.7806 3.83337 20.7029 3.8355 21.3923 3.92819C22.053 4.01701 22.3482 4.17218 22.5463 4.37036L23.9605 2.95613ZM18.4167 1.83337H15.5833V3.83337H18.4167V1.83337ZM15.5833 1.83337C14.2759 1.83337 13.1948 1.83125 12.3411 1.94602C11.4587 2.06467 10.6711 2.32443 10.0394 2.95614L11.4536 4.37034C11.6518 4.17218 11.947 4.01702 12.6076 3.92819C13.2971 3.8355 14.2194 3.83337 15.5833 3.83337V1.83337ZM10.0394 2.95613C9.40771 3.58783 9.14794 4.37541 9.0293 5.25785C8.91453 6.11153 8.91665 7.19266 8.91665 8.50004H10.9166C10.9166 7.13612 10.9188 6.21378 11.0115 5.52435C11.1003 4.86368 11.2555 4.56851 11.4536 4.37036L10.0394 2.95613ZM8.91665 8.50004V11.3334H10.9166V8.50004H8.91665ZM19.8173 21.6667H14.1827V23.6667H19.8173V21.6667ZM14.1827 21.6667C13.2937 21.6667 12.5869 21.6513 11.9635 21.8842L12.6633 23.7578C12.866 23.6821 13.13 23.6667 14.1827 23.6667V21.6667ZM11.9637 21.8841C11.1892 22.1732 10.5435 22.7282 10.116 23.4417L11.8315 24.4698C12.0388 24.1238 12.3362 23.8799 12.6631 23.7578L11.9637 21.8841ZM10.1159 23.4418C9.77665 24.0081 9.62692 24.7115 9.40804 25.6614L11.357 26.1105C11.609 25.0167 11.6947 24.6981 11.8316 24.4697L10.1159 23.4418ZM9.40804 25.6614C9.22724 26.4461 9.07969 27.0839 8.99669 27.6049C8.91295 28.1305 8.87887 28.6246 8.9743 29.1129L10.9372 28.7294C10.9075 28.5775 10.9028 28.3523 10.9718 27.9196C11.0415 27.4822 11.1699 26.9225 11.357 26.1105L9.40804 25.6614ZM8.97431 29.113C9.19483 30.2412 9.88887 31.2297 10.8974 31.7635L11.833 29.9958C11.3961 29.7646 11.0503 29.3081 10.9372 28.7293L8.97431 29.113ZM10.8973 31.7634C11.343 31.9995 11.8248 32.0872 12.3283 32.1276C12.8247 32.1675 13.4407 32.1667 14.1827 32.1667V30.1667C13.4077 30.1667 12.886 30.166 12.4884 30.134C12.098 30.1027 11.9295 30.0469 11.8332 29.9959L10.8973 31.7634ZM14.1827 32.1667H19.8173V30.1667H14.1827V32.1667ZM19.8173 32.1667C20.5593 32.1667 21.1753 32.1675 21.6717 32.1276C22.1752 32.0872 22.657 31.9995 23.1027 31.7634L22.1668 29.9959C22.0705 30.0469 21.902 30.1027 21.5116 30.134C21.114 30.166 20.5923 30.1667 19.8173 30.1667V32.1667ZM23.1026 31.7635C24.111 31.2298 24.8052 30.2413 25.0257 29.1129L23.0628 28.7294C22.9497 29.3081 22.6038 29.7646 22.167 29.9959L23.1026 31.7635ZM25.0257 29.1129C25.1211 28.6246 25.087 28.1306 25.0033 27.605C24.9203 27.084 24.7728 26.4461 24.592 25.6614L22.6431 26.1105C22.8302 26.9225 22.9585 27.4822 23.0282 27.9195C23.0971 28.3523 23.0925 28.5775 23.0628 28.7294L25.0257 29.1129ZM24.592 25.6614C24.3731 24.7113 24.2232 24.0081 23.8841 23.4419L22.1683 24.4696C22.3052 24.6981 22.3911 25.0169 22.6431 26.1105L24.592 25.6614ZM23.8839 23.4416C23.4564 22.7283 22.8108 22.1732 22.0363 21.8841L21.3369 23.7578C21.6637 23.8798 21.9611 24.1238 22.1685 24.4698L23.8839 23.4416ZM22.0365 21.8842C21.413 21.6513 20.7064 21.6667 19.8173 21.6667V23.6667C20.8699 23.6667 21.134 23.6821 21.3367 23.7578L22.0365 21.8842ZM25.5 18H25.5127V16H25.5V18Z" fill="#22577A"/>
</svg>
