<svg width="226" height="34" viewBox="0 0 226 34" fill="none" xmlns="http://www.w3.org/2000/svg">
<rect x="28" y="16" width="71" height="3" fill="#EBEBEB"/>
<rect x="28" y="16" width="6" height="3" fill="#22577A"/>
<rect x="127" y="16" width="71" height="3" fill="#EBEBEB"/>
<rect x="121" y="16" width="6" height="3" fill="#22577A"/>
<circle cx="17" cy="17" r="17" fill="#22577A"/>
<circle cx="113" cy="17" r="14" fill="#EBEBEB"/>
<circle cx="212" cy="17" r="14" fill="#EBEBEB"/>
<path d="M16.114 23V10.508H17.788V23H16.114ZM13.558 12.02V10.508H17.608V12.02H13.558Z" fill="white"/>
<path d="M108.594 21.974L113.202 17.114C113.67 16.634 114.036 16.22 114.3 15.872C114.564 15.512 114.75 15.182 114.858 14.882C114.978 14.582 115.038 14.27 115.038 13.946C115.038 13.31 114.834 12.812 114.426 12.452C114.018 12.092 113.49 11.912 112.842 11.912C112.206 11.912 111.648 12.068 111.168 12.38C110.688 12.68 110.262 13.148 109.89 13.784L108.702 12.794C109.194 11.978 109.788 11.366 110.484 10.958C111.18 10.538 111.984 10.328 112.896 10.328C113.664 10.328 114.33 10.478 114.894 10.778C115.47 11.078 115.914 11.498 116.226 12.038C116.538 12.578 116.694 13.208 116.694 13.928C116.694 14.444 116.628 14.906 116.496 15.314C116.376 15.722 116.154 16.142 115.83 16.574C115.518 16.994 115.08 17.498 114.516 18.086L110.79 21.92L108.594 21.974ZM108.594 23V21.974L110.034 21.488H116.982V23H108.594Z" fill="white"/>
<path d="M211.446 23.18C210.63 23.18 209.886 23.03 209.214 22.73C208.554 22.418 207.996 21.968 207.54 21.38L208.692 20.228C208.968 20.648 209.346 20.984 209.826 21.236C210.306 21.476 210.84 21.596 211.428 21.596C211.98 21.596 212.454 21.494 212.85 21.29C213.258 21.074 213.576 20.774 213.804 20.39C214.044 20.006 214.164 19.562 214.164 19.058C214.164 18.542 214.044 18.098 213.804 17.726C213.576 17.342 213.252 17.048 212.832 16.844C212.412 16.64 211.914 16.538 211.338 16.538C211.122 16.538 210.906 16.556 210.69 16.592C210.474 16.616 210.264 16.658 210.06 16.718L210.78 15.746C211.008 15.638 211.254 15.554 211.518 15.494C211.782 15.434 212.046 15.404 212.31 15.404C212.982 15.404 213.582 15.56 214.11 15.872C214.65 16.184 215.076 16.622 215.388 17.186C215.712 17.75 215.874 18.404 215.874 19.148C215.874 19.94 215.682 20.642 215.298 21.254C214.926 21.854 214.41 22.328 213.75 22.676C213.09 23.012 212.322 23.18 211.446 23.18ZM210.06 16.718V15.692L213.714 11.534L215.73 11.516L211.968 15.782L210.06 16.718ZM208.134 12.02V10.508H215.73V11.516L214.254 12.02H208.134Z" fill="white"/>
</svg>
