<svg width="22" height="22" viewBox="0 0 22 22" fill="none" xmlns="http://www.w3.org/2000/svg">
<path d="M18.5433 9.5L21 10C20.497 4.94668 16.2229 1 11.0247 1C5.48824 1 1 5.47715 1 11C1 16.5228 5.48824 21 11.0247 21C15.1355 21 18.6684 18.5318 20.2153 15" stroke="#22577A" stroke-width="1.2" stroke-linecap="round" stroke-linejoin="round"/>
<path d="M9.16222 9.87988C8.1049 9.87988 7.57623 10.6599 7.45875 11.1399C7.34126 11.6199 7.34126 13.3599 7.41175 14.0799C7.64672 14.9799 8.23413 15.3519 8.8098 15.4719C9.33845 15.5199 11.5706 15.5019 12.2168 15.5019C13.1566 15.5199 13.8615 15.1599 14.1552 14.0799C14.214 13.7199 14.2727 11.7399 14.1259 11.1399C13.8145 10.1799 13.0391 9.87988 12.4517 9.87988H9.16222Z" stroke="#22577A" stroke-width="1.2" stroke-linecap="round"/>
<path d="M9.0769 9.4585C9.0769 9.3985 9.08493 9.0531 9.0863 8.61854C9.08748 8.22145 9.05341 7.83854 9.23903 7.48814C9.93453 6.07454 11.9317 6.21854 12.4252 7.65854C12.5106 7.89562 12.5157 8.27146 12.5133 8.61854C12.51 9.062 12.5191 9.4585 12.5191 9.4585" stroke="#22577A" stroke-width="1.2" stroke-linecap="round"/>
</svg>
