<svg width="32" height="32" viewBox="0 0 32 32" fill="none" xmlns="http://www.w3.org/2000/svg">
<path d="M5.16385 22.6925L3.55911 13.1197C3.31647 11.6724 3.19516 10.9487 3.58364 10.4743C3.97213 10 4.68615 10 6.11419 10H25.8859C27.3139 10 28.0279 10 28.4164 10.4743C28.8048 10.9487 28.6835 11.6724 28.4409 13.1197L26.8361 22.6925C26.3043 25.8655 26.0383 27.4519 24.9524 28.3927C23.8667 29.3333 22.3013 29.3333 19.1709 29.3333H12.8291C9.69861 29.3333 8.13337 29.3333 7.04753 28.3927C5.96169 27.4519 5.69575 25.8655 5.16385 22.6925Z" stroke="#6A742B" stroke-width="2"/>
<path d="M23.3333 10C23.3333 5.9499 20.0501 2.66666 16 2.66666C11.9499 2.66666 8.66667 5.9499 8.66667 10" stroke="#6A742B" stroke-width="2"/>
</svg>
