<svg width="22" height="21" viewBox="0 0 22 21" fill="none" xmlns="http://www.w3.org/2000/svg">
<path d="M7.5 14L6.86387 14.1336L6.9723 14.65H7.5V14ZM19.1034 7.93545L18.4662 7.80714L18.4662 7.80717L19.1034 7.93545ZM19.1656 6.03319L18.6398 6.4153L18.6398 6.41531L19.1656 6.03319ZM5.75 5.0375C5.39101 5.0375 5.1 5.32851 5.1 5.6875C5.1 6.04648 5.39101 6.3375 5.75 6.3375V5.0375ZM5.20639 3.07556L5.84252 2.94201L5.83998 2.92991L5.83698 2.91792L5.20639 3.07556ZM2.6875 1.1C2.32851 1.1 2.0375 1.39101 2.0375 1.75C2.0375 2.10899 2.32851 2.4 2.6875 2.4V1.1ZM8.27 14.65C8.62899 14.65 8.92 14.359 8.92 14C8.92 13.641 8.62899 13.35 8.27 13.35V14.65ZM7.5 14.65H13.8553V13.35H7.5V14.65ZM13.8553 14.65C14.9028 14.65 15.7758 14.4857 16.5036 14.148C17.2389 13.8067 17.7916 13.3044 18.2165 12.6843C19.0367 11.4871 19.3857 9.82649 19.7406 8.06372L18.4662 7.80717C18.0968 9.64216 17.7851 11.0139 17.144 11.9495C16.8382 12.3958 16.4601 12.735 15.9564 12.9687C15.4453 13.2059 14.7711 13.35 13.8553 13.35V14.65ZM19.7406 8.06375C19.8414 7.56286 19.9311 7.12444 19.9555 6.76944C19.9807 6.40301 19.9478 6.00388 19.6914 5.65106L18.6398 6.41531C18.6408 6.4167 18.6472 6.42385 18.6534 6.45549C18.6609 6.49378 18.6667 6.56199 18.6586 6.68015C18.6413 6.93044 18.5743 7.27031 18.4662 7.80714L19.7406 8.06375ZM19.6914 5.65107C19.4251 5.28461 19.0486 5.14624 18.6866 5.08875C18.3516 5.03556 17.929 5.0375 17.4698 5.0375V6.3375C17.9737 6.3375 18.2734 6.33944 18.4827 6.37267C18.5782 6.38783 18.6204 6.40507 18.6352 6.41263C18.6426 6.41639 18.6395 6.41493 18.6398 6.4153L19.6914 5.65107ZM17.4698 5.0375H5.75V6.3375H17.4698V5.0375ZM8.13613 13.8664L5.84252 2.94201L4.57026 3.20912L6.86387 14.1336L8.13613 13.8664ZM5.83698 2.91792C5.56989 1.84951 4.60992 1.1 3.50864 1.1V2.4C4.0134 2.4 4.45338 2.74352 4.5758 3.23321L5.83698 2.91792ZM3.50864 1.1H2.6875V2.4H3.50864V1.1ZM8.27 13.35H7.91V14.65H8.27V13.35ZM7.91 13.35C6.33333 13.35 5.1 14.6737 5.1 16.25H6.4C6.4 15.3411 7.10081 14.65 7.91 14.65V13.35ZM5.1 16.25C5.1 16.7908 5.52739 17.275 6.11 17.275V15.975C6.29496 15.975 6.4 16.1234 6.4 16.25H5.1ZM6.11 17.275H15.8125V15.975H6.11V17.275ZM10.35 17.9375C10.35 18.3034 10.0534 18.6 9.6875 18.6V19.9C10.7714 19.9 11.65 19.0214 11.65 17.9375H10.35ZM9.6875 18.6C9.32161 18.6 9.025 18.3034 9.025 17.9375H7.725C7.725 19.0214 8.60364 19.9 9.6875 19.9V18.6ZM9.025 17.9375C9.025 17.5716 9.32161 17.275 9.6875 17.275V15.975C8.60364 15.975 7.725 16.8536 7.725 17.9375H9.025ZM9.6875 17.275C10.0534 17.275 10.35 17.5716 10.35 17.9375H11.65C11.65 16.8536 10.7714 15.975 9.6875 15.975V17.275ZM16.475 17.9375C16.475 18.3034 16.1784 18.6 15.8125 18.6V19.9C16.8964 19.9 17.775 19.0214 17.775 17.9375H16.475ZM15.8125 18.6C15.4466 18.6 15.15 18.3034 15.15 17.9375H13.85C13.85 19.0214 14.7286 19.9 15.8125 19.9V18.6ZM15.15 17.9375C15.15 17.5716 15.4466 17.275 15.8125 17.275V15.975C14.7286 15.975 13.85 16.8536 13.85 17.9375H15.15ZM15.8125 17.275C16.1784 17.275 16.475 17.5716 16.475 17.9375H17.775C17.775 16.8536 16.8964 15.975 15.8125 15.975V17.275Z" fill="white"/>
</svg>
