<svg width="205" height="96" viewBox="0 0 205 96" fill="none" xmlns="http://www.w3.org/2000/svg">
<path d="M72.1566 83.6078C72.1566 88.5649 67.4215 93.1501 60.8315 93.1501C54.2416 93.1501 49.5065 88.5649 49.5065 83.6078C49.5065 78.6507 54.2416 74.0655 60.8315 74.0655C67.4215 74.0655 72.1566 78.6507 72.1566 83.6078Z" stroke="#6A742B" stroke-width="5"/>
<path d="M60.962 89.0823L60.9622 90.4586" stroke="#6A742B" stroke-width="5" stroke-linecap="round"/>
<path d="M60.9607 78.0722L60.9604 76.3519" stroke="#6A742B" stroke-width="5" stroke-linecap="round"/>
<path d="M64.0764 78.8201C63.2567 78.4314 62.0122 78.0679 60.8485 78.0723C59.4461 78.0775 58.1612 78.617 57.8791 80.2906C57.5071 82.4979 60.3297 83.29 62.0112 84.0873C64.3357 85.1896 64.3148 87.2562 62.9157 88.252C62.2864 88.6998 61.5719 88.9456 60.8501 89.0385C59.7947 89.1744 58.7237 88.9836 57.8803 88.6199" stroke="#6A742B" stroke-width="5" stroke-linecap="round"/>
<path d="M91.0142 89.0823L91.0144 90.4586" stroke="#6A742B" stroke-width="5" stroke-linecap="round"/>
<path d="M91.0129 78.0722L91.0127 76.3519" stroke="#6A742B" stroke-width="5" stroke-linecap="round"/>
<path d="M94.1287 78.8201C93.3089 78.4314 92.0644 78.0679 90.9007 78.0723C89.4983 78.0775 88.2134 78.617 87.9313 80.2906C87.5593 82.4979 90.3819 83.29 92.0635 84.0873C94.3879 85.1896 94.3671 87.2562 92.9679 88.252C92.3386 88.6998 91.6241 88.9456 90.9023 89.0385C89.8469 89.1744 88.7759 88.9836 87.9325 88.6199" stroke="#6A742B" stroke-width="5" stroke-linecap="round"/>
<path d="M121.066 89.0823L121.067 90.4586" stroke="#6A742B" stroke-width="5" stroke-linecap="round"/>
<path d="M121.065 78.0722L121.065 76.3519" stroke="#6A742B" stroke-width="5" stroke-linecap="round"/>
<path d="M124.181 78.8201C123.361 78.4314 122.117 78.0679 120.953 78.0723C119.551 78.0775 118.266 78.617 117.984 80.2906C117.611 82.4979 120.434 83.29 122.116 84.0873C124.44 85.1896 124.419 87.2562 123.02 88.252C122.391 88.6998 121.676 88.9456 120.954 89.0385C119.899 89.1744 118.828 88.9836 117.985 88.6199" stroke="#6A742B" stroke-width="5" stroke-linecap="round"/>
<path d="M151.118 89.0823L151.119 90.4586" stroke="#6A742B" stroke-width="5" stroke-linecap="round"/>
<path d="M151.117 78.0722L151.117 76.3519" stroke="#6A742B" stroke-width="5" stroke-linecap="round"/>
<path d="M154.233 78.8201C153.413 78.4314 152.169 78.0679 151.005 78.0723C149.603 78.0775 148.318 78.617 148.036 80.2906C147.664 82.4979 150.486 83.29 152.168 84.0873C154.492 85.1896 154.471 87.2562 153.072 88.252C152.443 88.6998 151.728 88.9456 151.007 89.0385C149.951 89.1744 148.88 88.9836 148.037 88.6199" stroke="#6A742B" stroke-width="5" stroke-linecap="round"/>
<path d="M102.143 83.4359C102.143 88.393 97.4083 92.9782 90.8184 92.9782C84.2284 92.9782 79.4933 88.393 79.4933 83.4359C79.4933 78.4788 84.2284 73.8936 90.8184 73.8936C97.4083 73.8936 102.143 78.4788 102.143 83.4359Z" stroke="#6A742B" stroke-width="5"/>
<path d="M132.13 83.4359C132.13 88.393 127.395 92.9782 120.805 92.9782C114.215 92.9782 109.48 88.393 109.48 83.4359C109.48 78.4788 114.215 73.8936 120.805 73.8936C127.395 73.8936 132.13 78.4788 132.13 83.4359Z" stroke="#6A742B" stroke-width="5"/>
<path d="M162.117 83.4359C162.117 88.393 157.382 92.9782 150.792 92.9782C144.202 92.9782 139.467 88.393 139.467 83.4359C139.467 78.4788 144.202 73.8936 150.792 73.8936C157.382 73.8936 162.117 78.4788 162.117 83.4359Z" stroke="#6A742B" stroke-width="5"/>
<path d="M31.0396 65.3723C30.2607 65.2576 27.5736 63.9273 23.0561 59.5232" stroke="#6A742B" stroke-width="5" stroke-linecap="round"/>
<path d="M26.3663 73.802C20.7843 71.6229 8.29636 64.7875 3 54.8784" stroke="#6A742B" stroke-width="5" stroke-linecap="round"/>
<path d="M28.1188 87.5646C24.2893 86.6471 14.9947 82.9885 8.45217 75.6944" stroke="#6A742B" stroke-width="5" stroke-linecap="round"/>
<path d="M173.963 61.4156C174.742 61.3009 177.429 59.9706 181.947 55.5665" stroke="#6A742B" stroke-width="5" stroke-linecap="round"/>
<path d="M178.637 69.8452C184.219 67.6661 196.707 60.8307 202.003 50.9216" stroke="#6A742B" stroke-width="5" stroke-linecap="round"/>
<path d="M176.884 83.6079C180.714 82.6904 190.008 79.0318 196.551 71.7376" stroke="#6A742B" stroke-width="5" stroke-linecap="round"/>
<path d="M90.8183 10.3221V71.3936" stroke="#6A742B" stroke-width="5" stroke-linecap="round"/>
<path d="M61.0263 10.4939V71.5655" stroke="#6A742B" stroke-width="5" stroke-linecap="round"/>
<path d="M120.221 10.3221V71.3936" stroke="#6A742B" stroke-width="5" stroke-linecap="round"/>
<path d="M150.597 10.3221V71.3936" stroke="#6A742B" stroke-width="5" stroke-linecap="round"/>
<path d="M169.557 10.166H49.4943C44.0474 10.166 39.6011 5.88229 39.3404 0.5H159.403C164.85 0.5 169.296 4.78374 169.557 10.166Z" fill="#ABB855" stroke="#6A742B"/>
</svg>
