<svg width="289" height="323" viewBox="0 0 289 323" fill="none" xmlns="http://www.w3.org/2000/svg">
<path d="M194.909 203.889V239.469C194.909 239.995 195.317 240.432 195.842 240.467L225.593 242.473C225.641 242.476 225.689 242.476 225.737 242.472L237.76 241.556" stroke="#B4B4B4" stroke-width="7" stroke-linecap="round"/>
<path d="M194.909 203.774L224.542 200.111C225.139 200.037 225.665 200.503 225.665 201.103V242.017" stroke="#B4B4B4" stroke-width="7" stroke-linecap="round"/>
<path d="M231.747 200.318L270.23 202.792C270.756 202.826 271.165 203.262 271.165 203.79V218.288" stroke="#B4B4B4" stroke-width="7" stroke-linecap="round"/>
<path d="M195.024 240.404H184.275C183.722 240.404 183.275 240.852 183.275 241.404V253.597C183.275 254.091 183.637 254.512 184.126 254.586L216.568 259.468C217.173 259.559 217.717 259.091 217.717 258.479V246.164" stroke="#B4B4B4" stroke-width="7" stroke-linecap="round"/>
<path d="M217.602 259.641L244.902 257.107" stroke="#B4B4B4" stroke-width="7" stroke-linecap="round"/>
<path d="M233.728 258.95V230.152L246.169 258.95H233.728Z" fill="#A0A0A0" fill-opacity="0.3"/>
<path d="M267.902 244.319L251.406 209.988C250.754 208.631 251.779 207.067 253.284 207.123L257.988 207.3C258.725 207.327 259.387 207.758 259.711 208.421L276.875 243.614C277.25 244.382 277.096 245.302 276.492 245.905L274.022 248.376C273.666 248.731 273.19 248.94 272.688 248.96L269.012 249.109C267.483 249.171 266.625 247.369 267.638 246.222C268.1 245.698 268.204 244.948 267.902 244.319Z" fill="#B4B4B4"/>
<path d="M263.183 255.84H258.709C258.351 255.84 258.009 255.986 257.761 256.245C256.942 257.099 257.582 258.516 258.765 258.466L263.235 258.278C263.521 258.265 263.794 258.153 264.005 257.96C264.828 257.209 264.296 255.84 263.183 255.84Z" fill="#B4B4B4"/>
<path d="M206.198 204.637V204.142C206.198 203.14 206.94 202.292 207.933 202.16L210.845 201.772C212.044 201.612 213.109 202.545 213.109 203.754V204.297C213.109 205.312 212.349 206.166 211.341 206.284L208.43 206.623C207.241 206.762 206.198 205.833 206.198 204.637Z" fill="#B4B4B4"/>
<path d="M200.751 252.863L198.04 252.536C196.865 252.394 195.831 253.311 195.831 254.495C195.831 255.468 196.54 256.295 197.501 256.445L200.205 256.864C201.417 257.052 202.512 256.092 202.512 254.865C202.512 253.854 201.756 252.984 200.751 252.863Z" fill="#B4B4B4"/>
<path d="M206.658 238.603V239.25C206.658 240.292 207.459 241.16 208.498 241.244L211.64 241.497C212.804 241.591 213.8 240.671 213.8 239.503V238.603C213.8 237.498 212.905 236.603 211.8 236.603H208.658C207.554 236.603 206.658 237.498 206.658 238.603Z" fill="#B4B4B4"/>
<path d="M195.831 244.621V242.662C195.831 241.503 196.812 240.587 197.968 240.667L200.649 240.852C201.698 240.924 202.512 241.796 202.512 242.847V244.944C202.512 246.144 201.463 247.074 200.272 246.93L197.591 246.606C196.586 246.485 195.831 245.633 195.831 244.621Z" fill="#B4B4B4"/>
<path d="M245.713 257.756L229.72 221.058C229.565 220.703 229.629 220.29 229.884 219.999L240.675 207.681C241.149 207.141 242.021 207.261 242.33 207.91L260.025 245.048C260.211 245.439 260.125 245.905 259.812 246.203L247.319 258.081C246.816 258.559 245.991 258.392 245.713 257.756Z" stroke="#B4B4B4" stroke-width="7" stroke-linecap="round"/>
<path d="M246.515 258.95L270.911 257.815C271.149 257.804 271.376 257.708 271.55 257.544L283.392 246.382C284.065 245.748 283.591 244.619 282.667 244.655L264.577 245.357" stroke="#B4B4B4" stroke-width="7" stroke-linecap="round"/>
<path d="M241.677 206.653L265.056 207.553C265.415 207.566 265.739 207.772 265.904 208.09L284.873 244.551" stroke="#B4B4B4" stroke-width="7" stroke-linecap="round"/>
<path d="M58.7573 316.819C65.0905 313.844 80.5062 308.088 91.5049 308.847C93.0643 308.91 95.4193 309.57 92.3642 311.694C89.3089 313.821 87.7814 314.922 87.3996 315.206C85.8084 316.534 84.2488 319.342 90.7411 319.95C98.8564 320.709 121.77 312.453 167.12 318.525" stroke="#B4B4B4" stroke-width="5" stroke-linecap="round"/>
<path d="M8.0061 259.985V254.506" stroke="#B4B4B4" stroke-width="5" stroke-linecap="round"/>
<path d="M3.10498 257.55L6.09474 259.985" stroke="#B4B4B4" stroke-width="5" stroke-linecap="round"/>
<path d="M10.0012 259.985L12.2442 256.42" stroke="#B4B4B4" stroke-width="5" stroke-linecap="round"/>
<path d="M122.405 292.863V284.774" stroke="#B4B4B4" stroke-width="5" stroke-linecap="round"/>
<path d="M115.124 289.268L119.566 292.863" stroke="#B4B4B4" stroke-width="5" stroke-linecap="round"/>
<path d="M125.369 292.863L128.702 287.599" stroke="#B4B4B4" stroke-width="5" stroke-linecap="round"/>
<path d="M171.916 93.1223L172.171 133.379C172.175 133.919 171.748 134.365 171.208 134.385L140.321 135.523L120.607 134.349" stroke="#22577A" stroke-width="5" stroke-linecap="round"/>
<path d="M171.916 92.9918H140.799C140.247 92.9918 139.799 93.4395 139.799 93.9918V110.474" stroke="#22577A" stroke-width="5" stroke-linecap="round"/>
<path d="M134.838 92.9918H108.812C108.26 92.9918 107.812 93.4395 107.812 93.9918V116.736" stroke="#22577A" stroke-width="5" stroke-linecap="round"/>
<path d="M160.688 97.1298V96.7905C160.688 95.7534 159.895 94.8883 158.862 94.7981L155.29 94.4863C154.121 94.3843 153.116 95.3055 153.116 96.4787V96.9141C153.116 97.9719 153.94 98.8468 154.995 98.9105L158.568 99.1261C159.718 99.1955 160.688 98.2817 160.688 97.1298Z" fill="#22577A"/>
<path d="M159.774 132.044V133.058C159.774 134.099 158.976 134.966 157.938 135.051L154.366 135.345C153.201 135.441 152.202 134.521 152.202 133.352V132.044C152.202 130.939 153.097 130.044 154.202 130.044H157.774C158.879 130.044 159.774 130.939 159.774 132.044Z" fill="#22577A"/>
<path d="M140.191 135.523V127.304" stroke="#22577A" stroke-width="5" stroke-linecap="round"/>
<path d="M101.807 164.747C101.807 161.877 101.807 148.804 101.807 144.525" stroke="#22577A" stroke-width="5" stroke-linecap="round"/>
<path d="M102.329 116.335C102.329 104.69 99.272 99.0137 95.0505 93.3367" stroke="#22577A" stroke-width="5" stroke-linecap="round"/>
<path d="M53.2393 162.268C50.7587 132.001 52.5423 111.518 63.148 95.0842C66.3504 90.1218 73.5036 85.6391 78.311 87.3693" stroke="#22577A" stroke-width="5" stroke-linecap="round"/>
<path d="M96.4989 85.7837C98.8434 83.9365 116.492 83.6521 117.403 59.3409C123.735 58.6791 124.88 54.8286 121.487 51.449C116.776 46.7551 117.379 44.0569 117.977 41.081C119.021 37.1485 118.65 33.1902 118.235 32.4016" stroke="#22577A" stroke-width="5" stroke-linecap="round"/>
<path d="M123.881 54.6517C116.254 55.9823 107.695 58.7946 90.7469 45.8041C90.2128 47.7612 88.7023 52.8027 86.9334 57.3114C84.7223 62.9474 99.7038 84.6846 109.986 79.9703C118.388 76.1179 123.96 70.3506 123.881 54.6517Z" fill="#22577A"/>
<path d="M110.815 52.0138C111.506 52.2017 112.305 51.4769 112.6 50.3947C112.895 49.3125 112.574 48.2825 111.883 48.0945C111.192 47.9066 110.392 48.6314 110.097 49.7139C109.803 50.7961 110.124 51.8258 110.815 52.0138Z" fill="#22577A"/>
<path d="M106.048 48.1907C105.901 46.6438 106.477 43.4886 109.954 43.2414" stroke="#22577A" stroke-width="5" stroke-linecap="round"/>
<path d="M84.9834 47.1904C84.6491 48.2287 84.5334 50.5104 86.7458 51.3328" stroke="#22577A" stroke-width="5" stroke-linecap="round"/>
<path d="M61.5461 39.6563C60.6531 53.3943 69.5311 62.6245 76.019 69.7595C81.6048 65.8477 90.4824 57.0589 86.6395 56.6691C82.6003 56.2591 77.1958 46.0079 80.6377 42.2796C84.6759 37.905 89.3995 43.2634 90.6853 47.5936L93.5714 40.928C92.0407 36.6787 90.7471 29.0628 97.8199 32.5938C104.893 36.1248 114.402 33.8777 118.273 32.3131C125.501 25.7561 136.218 11.1765 121.267 5.31274C108.831 0.435791 94.5142 10.0965 86.0398 18.2664C79.549 17.3378 62.7635 20.9253 61.5461 39.6563Z" fill="#22577A"/>
<path d="M76.3516 68.8074C79.5967 71.9004 81.3421 74.5792 81.8521 80.4896" stroke="#22577A" stroke-width="5" stroke-linecap="round"/>
<path d="M87.3927 102.124C90.0733 122.637 96.7652 124.482 99.7761 122.84C105.798 120.088 119.065 115.568 123.96 119.508C128.855 123.448 122.989 128.779 119.444 130.952C107.692 139.306 82.1769 153.001 74.1351 140.948C66.093 128.895 65.5394 113.713 66.2678 107.629" stroke="#22577A" stroke-width="5" stroke-linecap="round"/>
<path d="M78.574 87.5862C77.8133 84.9352 77.3676 79.8787 81.6692 80.8614C87.0461 82.0898 97.8448 90.0442 97.0419 92.9895" stroke="#22577A" stroke-width="5" stroke-linecap="round"/>
<path d="M140.229 122.305C140.714 123.793 139.937 127.238 132.815 128.072C130.12 128.388 129.716 128.344 127.187 128.131" stroke="#22577A" stroke-width="5" stroke-linecap="round"/>
<path d="M141.218 117.978C142.405 118.312 143.472 119.605 140.229 122.305C139.52 122.895 138.604 123.552 137.439 124.282" stroke="#22577A" stroke-width="5" stroke-linecap="round"/>
<path d="M140.689 114.843C141.933 114.829 143.138 115.529 141.218 117.978C140.387 119.038 138.97 120.426 136.717 122.225" stroke="#22577A" stroke-width="5" stroke-linecap="round"/>
<path d="M125.475 116.759C131.133 110.95 133.549 110.657 132.413 115.416C131.277 120.175 135.492 116.086 137.682 113.733C138.562 112.755 140.521 111.182 141.318 112.714C141.592 113.242 141.29 114.005 140.689 114.843C139.543 116.441 137.312 118.312 135.912 119.342" stroke="#22577A" stroke-width="5" stroke-linecap="round"/>
<path d="M94.7148 237.516C103.635 204.14 103.895 191.461 102.454 163.646C86.3568 174.557 60.7151 165.809 52.615 161.877C47.9568 189.721 50.964 242.774 57.7227 275.26C60.323 279.508 65.926 277.324 68.4025 275.704L71.498 253.145L75.058 272.901C77.0391 276.205 82.9001 275.555 85.5828 274.819L94.7148 237.516Z" fill="#22577A"/>
<path d="M52.3252 283.266C51.5939 281.074 56.6771 282.352 58.9836 283.266C58.9836 285.249 63.8578 286.788 66.2948 287.31C56.8947 286.658 52.7169 284.44 52.3252 283.266Z" fill="#B4B4B4"/>
<path d="M73.2894 281.254C71.7226 279.793 74.4644 279.602 76.1616 279.819C76.6839 283.994 77.0755 282.819 79.5561 284.255C79.1645 284.907 74.8561 282.715 73.2894 281.254Z" fill="#B4B4B4"/>
<path d="M85.5787 277.345C86.4012 278.449 88.9719 280.654 91.4399 280.654C93.5521 280.654 94.3707 283.174 92.057 284.432C88.2008 286.008 79.3163 285.283 76.4783 281.755V276.873" stroke="#22577A" stroke-width="5" stroke-linecap="round"/>
<path d="M67.4994 278.699C68.2262 279.333 70.0848 280.662 71.7046 280.915C73.7292 281.23 76.5493 283.607 74.9753 286.452C73.5736 288.98 70.4586 288.453 68.5897 287.874L61.2696 285.186C60.4908 284.868 59.2449 284.393 59.2449 282.496C59.2449 280.599 59.2449 279.808 59.2449 279.649" stroke="#22577A" stroke-width="5" stroke-linecap="round"/>
</svg>
