<svg width="289" height="323" viewBox="0 0 289 323" fill="none" xmlns="http://www.w3.org/2000/svg">
<path d="M194.804 203.889V239.469C194.804 239.996 195.212 240.432 195.737 240.467L225.488 242.473C225.536 242.476 225.584 242.476 225.632 242.472L237.655 241.556" stroke="#B4B4B4" stroke-width="7" stroke-linecap="round"/>
<path d="M194.804 203.774L224.437 200.111C225.034 200.037 225.56 200.502 225.56 201.103V242.017" stroke="#B4B4B4" stroke-width="7" stroke-linecap="round"/>
<path d="M231.642 200.318L270.125 202.792C270.651 202.826 271.06 203.262 271.06 203.79V218.288" stroke="#B4B4B4" stroke-width="7" stroke-linecap="round"/>
<path d="M194.919 240.404H184.17C183.618 240.404 183.17 240.852 183.17 241.404V253.597C183.17 254.091 183.532 254.512 184.021 254.586L216.463 259.468C217.068 259.559 217.612 259.091 217.612 258.479V246.164" stroke="#B4B4B4" stroke-width="7" stroke-linecap="round"/>
<path d="M217.497 259.641L244.797 257.107" stroke="#B4B4B4" stroke-width="7" stroke-linecap="round"/>
<path d="M233.623 258.95V230.152L246.064 258.95H233.623Z" fill="#A0A0A0" fill-opacity="0.3"/>
<path d="M267.797 244.319L251.301 209.988C250.649 208.631 251.674 207.067 253.179 207.123L257.883 207.3C258.62 207.327 259.282 207.758 259.606 208.421L276.77 243.615C277.145 244.382 276.991 245.302 276.387 245.905L273.917 248.376C273.561 248.731 273.085 248.94 272.583 248.96L268.907 249.109C267.378 249.171 266.521 247.369 267.533 246.222C267.995 245.698 268.099 244.948 267.797 244.319Z" fill="#B4B4B4"/>
<path d="M263.078 255.84H258.604C258.246 255.84 257.904 255.986 257.656 256.245C256.837 257.099 257.477 258.516 258.66 258.466L263.13 258.278C263.416 258.265 263.689 258.153 263.9 257.96C264.723 257.209 264.192 255.84 263.078 255.84Z" fill="#B4B4B4"/>
<path d="M206.093 204.637V204.142C206.093 203.14 206.835 202.292 207.828 202.16L210.74 201.772C211.939 201.612 213.004 202.545 213.004 203.754V204.297C213.004 205.312 212.244 206.166 211.236 206.284L208.325 206.623C207.136 206.762 206.093 205.833 206.093 204.637Z" fill="#B4B4B4"/>
<path d="M200.646 252.863L197.935 252.536C196.76 252.394 195.726 253.311 195.726 254.495C195.726 255.468 196.435 256.295 197.396 256.445L200.1 256.864C201.312 257.052 202.407 256.092 202.407 254.865C202.407 253.854 201.651 252.984 200.646 252.863Z" fill="#B4B4B4"/>
<path d="M206.553 238.603V239.25C206.553 240.292 207.354 241.16 208.393 241.244L211.535 241.497C212.699 241.591 213.695 240.671 213.695 239.503V238.603C213.695 237.498 212.8 236.603 211.695 236.603H208.553C207.449 236.603 206.553 237.498 206.553 238.603Z" fill="#B4B4B4"/>
<path d="M195.726 244.621V242.662C195.726 241.503 196.707 240.587 197.863 240.667L200.544 240.852C201.593 240.924 202.407 241.796 202.407 242.847V244.944C202.407 246.144 201.358 247.074 200.167 246.93L197.486 246.606C196.481 246.485 195.726 245.633 195.726 244.621Z" fill="#B4B4B4"/>
<path d="M245.608 257.756L229.615 221.058C229.46 220.703 229.524 220.29 229.779 219.999L240.57 207.681C241.044 207.141 241.916 207.261 242.225 207.91L259.92 245.048C260.106 245.439 260.02 245.905 259.707 246.203L247.214 258.081C246.711 258.559 245.886 258.392 245.608 257.756Z" stroke="#B4B4B4" stroke-width="7" stroke-linecap="round"/>
<path d="M246.41 258.95L270.806 257.815C271.044 257.804 271.271 257.708 271.445 257.544L283.287 246.382C283.959 245.748 283.486 244.619 282.562 244.655L264.472 245.357" stroke="#B4B4B4" stroke-width="7" stroke-linecap="round"/>
<path d="M241.571 206.653L264.951 207.553C265.31 207.566 265.634 207.772 265.799 208.09L284.768 244.551" stroke="#B4B4B4" stroke-width="7" stroke-linecap="round"/>
<path d="M58.6523 316.819C64.9854 313.844 80.4012 308.088 91.3999 308.847C92.9593 308.91 95.3143 309.57 92.2592 311.694C89.2039 313.821 87.6764 314.922 87.2946 315.206C85.7034 316.534 84.1438 319.342 90.6361 319.95C98.7513 320.709 121.665 312.453 167.015 318.525" stroke="#B4B4B4" stroke-width="5" stroke-linecap="round"/>
<path d="M7.90103 259.985V254.506" stroke="#B4B4B4" stroke-width="5" stroke-linecap="round"/>
<path d="M3 257.55L5.98976 259.985" stroke="#B4B4B4" stroke-width="5" stroke-linecap="round"/>
<path d="M9.89625 259.985L12.1392 256.42" stroke="#B4B4B4" stroke-width="5" stroke-linecap="round"/>
<path d="M122.3 292.863V284.774" stroke="#B4B4B4" stroke-width="5" stroke-linecap="round"/>
<path d="M115.019 289.268L119.461 292.863" stroke="#B4B4B4" stroke-width="5" stroke-linecap="round"/>
<path d="M125.264 292.863L128.597 287.599" stroke="#B4B4B4" stroke-width="5" stroke-linecap="round"/>
<path d="M171.811 93.1224L172.066 133.379C172.07 133.919 171.643 134.365 171.103 134.385L140.216 135.523L120.502 134.349" stroke="#6A742B" stroke-width="5" stroke-linecap="round"/>
<path d="M171.811 92.9918H140.694C140.142 92.9918 139.694 93.4395 139.694 93.9918V110.474" stroke="#6A742B" stroke-width="5" stroke-linecap="round"/>
<path d="M134.733 92.9918H108.707C108.155 92.9918 107.707 93.4395 107.707 93.9918V116.736" stroke="#6A742B" stroke-width="5" stroke-linecap="round"/>
<path d="M160.583 97.1297V96.7905C160.583 95.7533 159.79 94.8883 158.757 94.7981L155.185 94.4862C154.016 94.3842 153.011 95.3054 153.011 96.4786V96.9141C153.011 97.9718 153.834 98.8467 154.89 98.9104L158.463 99.1261C159.613 99.1955 160.583 98.2817 160.583 97.1297Z" fill="#6A742B"/>
<path d="M159.669 132.044V133.058C159.669 134.099 158.871 134.966 157.833 135.051L154.261 135.345C153.096 135.441 152.097 134.521 152.097 133.352V132.044C152.097 130.939 152.992 130.044 154.097 130.044H157.669C158.774 130.044 159.669 130.939 159.669 132.044Z" fill="#6A742B"/>
<path d="M140.086 135.523V127.304" stroke="#6A742B" stroke-width="5" stroke-linecap="round"/>
<path d="M101.702 164.747C101.702 161.877 101.702 148.804 101.702 144.525" stroke="#6A742B" stroke-width="5" stroke-linecap="round"/>
<path d="M102.224 116.335C102.224 104.69 99.1671 99.0137 94.9456 93.3367" stroke="#6A742B" stroke-width="5" stroke-linecap="round"/>
<path d="M53.1343 162.268C50.6537 132.001 52.4374 111.518 63.043 95.0841C66.2454 90.1218 73.3986 85.639 78.206 87.3692" stroke="#6A742B" stroke-width="5" stroke-linecap="round"/>
<path d="M96.3941 85.7838C98.7385 83.9365 116.387 83.6522 117.298 59.3409C123.631 58.6791 124.775 54.8287 121.383 51.4491C116.671 46.7552 117.274 44.0569 117.872 41.0811C118.916 37.1486 118.545 33.1902 118.13 32.4017" stroke="#6A742B" stroke-width="5" stroke-linecap="round"/>
<path d="M123.776 54.6517C116.149 55.9823 107.589 58.7946 90.6419 45.804C90.1077 47.7612 88.5973 52.8027 86.8284 57.3114C84.6173 62.9474 99.5988 84.6845 109.881 79.9703C118.283 76.1179 123.855 70.3506 123.776 54.6517Z" fill="#6A742B"/>
<path d="M110.71 52.0138C111.401 52.2017 112.2 51.4769 112.495 50.3947C112.79 49.3125 112.469 48.2825 111.778 48.0945C111.087 47.9066 110.287 48.6314 109.992 49.7139C109.698 50.7961 110.019 51.8258 110.71 52.0138Z" fill="#6A742B"/>
<path d="M105.943 48.1907C105.796 46.6438 106.373 43.4885 109.849 43.2414" stroke="#6A742B" stroke-width="5" stroke-linecap="round"/>
<path d="M84.8784 47.1905C84.544 48.2288 84.4284 50.5105 86.6408 51.3328" stroke="#6A742B" stroke-width="5" stroke-linecap="round"/>
<path d="M61.4412 39.6563C60.5481 53.3943 69.4261 62.6245 75.9141 69.7595C81.4998 65.8477 90.3775 57.0589 86.5346 56.6691C82.4953 56.2591 77.0908 46.0079 80.5327 42.2796C84.5709 37.905 89.2946 43.2634 90.5804 47.5936L93.4665 40.928C91.9358 36.6787 90.6422 29.0628 97.715 32.5938C104.788 36.1248 114.298 33.8777 118.168 32.3131C125.396 25.7561 136.113 11.1765 121.162 5.31274C108.726 0.435791 94.4092 10.0965 85.9349 18.2664C79.444 17.3378 62.6586 20.9253 61.4412 39.6563Z" fill="#6A742B"/>
<path d="M76.2466 68.8074C79.4917 71.9004 81.2371 74.5792 81.7471 80.4896" stroke="#6A742B" stroke-width="5" stroke-linecap="round"/>
<path d="M87.2876 102.124C89.9682 122.637 96.6601 124.482 99.671 122.84C105.693 120.088 118.96 115.568 123.855 119.508C128.75 123.448 122.884 128.779 119.339 130.952C107.587 139.306 82.0718 153.001 74.03 140.948C65.9879 128.895 65.4343 113.713 66.1628 107.629" stroke="#6A742B" stroke-width="5" stroke-linecap="round"/>
<path d="M78.469 87.5862C77.7084 84.9352 77.2626 79.8787 81.5643 80.8613C86.9412 82.0898 97.7399 90.0442 96.9369 92.9895" stroke="#6A742B" stroke-width="5" stroke-linecap="round"/>
<path d="M140.124 122.305C140.609 123.793 139.832 127.238 132.71 128.072C130.015 128.388 129.611 128.344 127.082 128.131" stroke="#6A742B" stroke-width="5" stroke-linecap="round"/>
<path d="M141.113 117.978C142.3 118.312 143.367 119.605 140.124 122.305C139.415 122.895 138.499 123.552 137.334 124.282" stroke="#6A742B" stroke-width="5" stroke-linecap="round"/>
<path d="M140.584 114.843C141.828 114.829 143.033 115.529 141.113 117.978C140.282 119.038 138.865 120.426 136.612 122.225" stroke="#6A742B" stroke-width="5" stroke-linecap="round"/>
<path d="M125.37 116.759C131.028 110.95 133.444 110.657 132.308 115.416C131.172 120.175 135.387 116.086 137.577 113.733C138.457 112.755 140.416 111.182 141.213 112.714C141.487 113.242 141.185 114.005 140.584 114.843C139.439 116.441 137.207 118.312 135.807 119.342" stroke="#6A742B" stroke-width="5" stroke-linecap="round"/>
<path d="M94.6099 237.516C103.53 204.14 103.79 191.461 102.349 163.646C86.2518 174.557 60.6101 165.809 52.51 161.877C47.8519 189.721 50.859 242.774 57.6177 275.26C60.218 279.508 65.821 277.324 68.2975 275.704L71.3931 253.145L74.9531 272.901C76.9342 276.205 82.7952 275.555 85.4779 274.819L94.6099 237.516Z" fill="#6A742B"/>
<path d="M52.2202 283.266C51.489 281.074 56.5721 282.352 58.8786 283.266C58.8786 285.249 63.7528 286.788 66.1899 287.31C56.7897 286.658 52.6119 284.44 52.2202 283.266Z" fill="#B4B4B4"/>
<path d="M73.1845 281.254C71.6177 279.793 74.3595 279.602 76.0567 279.819C76.579 283.994 76.9706 282.819 79.4512 284.255C79.0596 284.907 74.7512 282.715 73.1845 281.254Z" fill="#B4B4B4"/>
<path d="M85.4737 277.345C86.2962 278.449 88.8669 280.654 91.335 280.654C93.4472 280.654 94.2658 283.174 91.952 284.432C88.0959 286.008 79.2114 285.283 76.3733 281.755V276.873" stroke="#6A742B" stroke-width="5" stroke-linecap="round"/>
<path d="M67.3944 278.699C68.1213 279.333 69.9798 280.662 71.5996 280.915C73.6242 281.23 76.4443 283.607 74.8703 286.452C73.4686 288.98 70.3536 288.453 68.4847 287.874L61.1646 285.186C60.3859 284.868 59.1399 284.393 59.1399 282.496C59.1399 280.599 59.1399 279.808 59.1399 279.649" stroke="#6A742B" stroke-width="5" stroke-linecap="round"/>
</svg>
