<svg width="470" height="98" viewBox="0 0 470 98" fill="none" xmlns="http://www.w3.org/2000/svg">
<path d="M162.666 2.25696L146.853 61.7297C146.83 61.8136 146.819 61.8999 146.819 61.9867V83.6134C146.819 84.0497 146.548 84.4324 146.131 84.5607C102.493 97.9919 21.2813 90.239 1.66519 84.5459C1.24457 84.4238 1 84.0478 1 83.6098V62.1623C1 61.9627 1.05976 61.7676 1.17159 61.6022L41.8492 1.43988C42.0352 1.16481 42.3456 1 42.6776 1H161.699C162.356 1 162.835 1.62228 162.666 2.25696Z" fill="#ABB855" stroke="#6A742B" stroke-width="2" stroke-linecap="round"/>
<path d="M408.209 1.56399L437.9 62.8463C437.966 62.9822 438 63.1313 438 63.2823V82.4184C438 82.6437 437.95 82.8378 437.796 83.0021C426.909 94.6178 300.741 93.514 292.709 87.9467C292.506 87.8059 292.468 87.6038 292.468 87.3568V63.0528L285.135 2.11949C285.063 1.52412 285.528 1 286.128 1H407.309C407.693 1 408.042 1.21906 408.209 1.56399Z" fill="#ABB855" stroke="#6A742B" stroke-width="2" stroke-linecap="round"/>
<path d="M286.402 2.88935L293 62.153V86.5714C293 86.9591 292.807 87.299 292.453 87.4568C266.047 99.2199 163.864 101.959 147.254 85.0045C147.079 84.826 147 84.5979 147 84.3479V62.2798C147 62.1956 147.011 62.1118 147.032 62.0303L162.306 2.75048C162.42 2.30873 162.818 2 163.275 2H285.408C285.918 2 286.346 2.38301 286.402 2.88935Z" stroke="#6A742B" stroke-width="2" stroke-linecap="round"/>
</svg>
